<?xml version="1.0" encoding="iso-8859-1"?>
<!DOCTYPE svg PUBLIC "-//W3C//DTD SVG 1.1//EN" "http://www.w3.org/Graphics/SVG/1.1/DTD/svg11.dtd">
<svg 
 version="1.1" xmlns="http://www.w3.org/2000/svg" xmlns:xlink="http://www.w3.org/1999/xlink" x="0px" y="0px" width="512px"
	 height="512px" viewBox="0 0 512 512" enable-background="new 0 0 512 512" xml:space="preserve"
><g id="5151e0c8492e5103c096af88a5295d22"><g></g><g fill="#b71c1c"><path display="inline" d="M396.577,297.362c19.97,18.29,21.332,49.417,3.042,69.382c-9.277,10.128-22.482,15.942-36.229,15.942
		c-12.298,0-24.07-4.582-33.152-12.896c-9.668-8.86-15.317-20.959-15.891-34.06c-0.573-13.104,3.992-25.649,12.854-35.321
		c9.272-10.129,22.478-15.938,36.225-15.938h0.009C375.727,284.471,387.499,289.049,396.577,297.362z M511.5,344.869
		c0,73.626-59.679,133.305-133.305,133.305c-58.038,0-107.385-37.102-125.688-88.869H40.114c-21.842,0-39.614-17.718-39.614-39.497
		V73.323c0-21.779,17.771-39.497,39.614-39.497h387.337c21.84,0,39.614,17.717,39.614,39.497v172.211
		C494.329,269.942,511.5,305.395,511.5,344.869z M310.606,229.981l-14.06-14.021l-62.764,44.699l-62.762-44.699l-81.957,81.71
		c-2.575,2.577-5.958,3.861-9.336,3.861c-3.378,0-6.758-1.284-9.336-3.861c-5.157-5.134-5.157-13.474,0-18.616l78.843-78.607
		l-77.182-54.971c-5.934-4.222-7.31-12.449-3.072-18.364c4.242-5.915,12.487-7.286,18.423-3.06l146.379,104.249l146.378-104.249
		c5.932-4.227,14.177-2.855,18.421,3.06c4.239,5.915,2.863,14.142-3.072,18.364l-77.18,54.971l17.938,17.885
		c13.188-4.368,27.273-6.767,41.927-6.767c22.573,0,43.827,5.63,62.461,15.535V73.323c0-7.26-5.924-13.166-13.205-13.166H40.114
		c-7.281,0-13.205,5.906-13.205,13.166v276.485c0,7.26,5.923,13.166,13.205,13.166h206.034c-0.805-5.924-1.256-11.96-1.256-18.104
		C244.891,295.922,271.287,253.162,310.606,229.981z M455.748,409.321l-41.905-38.381c18.941-25.507,15.899-61.719-8.04-83.649
		c-12.051-11.035-27.234-16.48-42.378-16.48c-16.984,0-33.925,6.855-46.301,20.373c-23.415,25.563-21.671,65.264,3.893,88.683
		c12.05,11.035,27.229,16.477,42.373,16.477c14.949,0,29.854-5.315,41.658-15.8l41.904,38.386L455.748,409.321z"></path></g></g></svg>