<?xml version="1.0" encoding="UTF-8" standalone="no"?>
<svg
   xmlns:figma="http://www.figma.com/figma/ns"
   xmlns:dc="http://purl.org/dc/elements/1.1/"
   xmlns:cc="http://creativecommons.org/ns#"
   xmlns:rdf="http://www.w3.org/1999/02/22-rdf-syntax-ns#"
   xmlns:svg="http://www.w3.org/2000/svg"
   xmlns="http://www.w3.org/2000/svg"
   xmlns:xlink="http://www.w3.org/1999/xlink"
   xmlns:sodipodi="http://sodipodi.sourceforge.net/DTD/sodipodi-0.dtd"
   xmlns:inkscape="http://www.inkscape.org/namespaces/inkscape"
   width="24"
   height="20"
   viewBox="0 0 24 20"
   version="1.1"
   id="svg2"
   inkscape:version="0.91 r13725"
   sodipodi:docname="brokenHeartIconFull.svg">
  <metadata
     id="metadata29">
    <rdf:RDF>
      <cc:Work
         rdf:about="">
        <dc:format>image/svg+xml</dc:format>
        <dc:type
           rdf:resource="http://purl.org/dc/dcmitype/StillImage" />
        <dc:title>noun_840946_cc</dc:title>
      </cc:Work>
    </rdf:RDF>
  </metadata>
  <sodipodi:namedview
     pagecolor="#ffffff"
     bordercolor="#666666"
     borderopacity="1"
     objecttolerance="10"
     gridtolerance="10"
     guidetolerance="10"
     inkscape:pageopacity="0"
     inkscape:pageshadow="2"
     inkscape:window-width="1387"
     inkscape:window-height="856"
     id="namedview27"
     showgrid="false"
     inkscape:zoom="11.8"
     inkscape:cx="12"
     inkscape:cy="10"
     inkscape:window-x="53"
     inkscape:window-y="0"
     inkscape:window-maximized="1"
     inkscape:current-layer="svg2" />
  <title
     id="title4">noun_840946_cc</title>
  <desc
     id="desc6">Created using Figma</desc>
  <g
     id="Canvas"
     transform="translate(-1558 -92)"
     figma:type="canvas">
    <g
       id="noun_840946_cc"
       style="mix-blend-mode:normal;"
       figma:type="frame">
      <g
         id="Vector"
         style="mix-blend-mode:normal;"
         figma:type="vector">
        <use
           xlink:href="#path0_fill"
           transform="translate(1559 93.0062)"
           style="mix-blend-mode:normal;"
           id="use11" />
        <use
           xlink:href="#path1_stroke"
           transform="translate(1559 93.0062)"
           style="mix-blend-mode:normal;"
           id="use13" />
      </g>
      <g
         id="g15"
         style="mix-blend-mode:normal;"
         figma:type="vector">
        <use
           xlink:href="#path2_fill"
           transform="translate(1569.89 92.9997)"
           style="mix-blend-mode:normal;"
           id="use17" />
        <use
           xlink:href="#path3_stroke"
           transform="translate(1569.89 92.9997)"
           style="mix-blend-mode:normal;"
           id="use19" />
      </g>
    </g>
  </g>
  <defs
     id="defs21">
    <path
       id="path0_fill"
       d="M 10.0757 2.26716C 10.0784 2.25677 10.0794 2.24663 10.0797 2.23598C 10.0797 2.22634 10.0797 2.21747 10.0781 2.20809C 10.0765 2.19871 10.0734 2.18984 10.0699 2.18071C 10.066 2.17082 10.0618 2.16169 10.056 2.15282C 10.0536 2.14927 10.0528 2.14496 10.0502 2.14141C 8.19635 -0.225588 4.67939 -0.704262 2.20801 1.07657C 0.483601 2.36351 -0.317827 4.43235 0.116039 6.47558L 0.116039 6.47584C 1.2253 11.615 4.86856 15.9162 9.86183 17.9817C 9.86656 17.9838 9.8713 17.983 9.87604 17.9845C 9.88077 17.9861 9.88446 17.9893 9.88919 17.9904C 9.90077 17.9929 9.91235 17.9939 9.92366 17.9942C 9.92392 17.9942 9.92392 17.9942 9.92392 17.9942C 9.95208 17.9942 9.97812 17.985 10.0015 17.9721C 10.0055 17.9698 10.0089 17.9683 10.0126 17.9663C 10.0344 17.9513 10.0515 17.9315 10.0636 17.908C 10.0649 17.9054 10.0676 17.9044 10.0686 17.9021C 10.0702 17.8983 10.0697 17.8943 10.0713 17.8905C 10.0731 17.8851 10.0763 17.8813 10.0776 17.8758L 11.1529 13.3035C 11.1634 13.2592 11.1529 13.2133 11.1242 13.1773L 9.17275 10.7286L 10.3936 8.26757C 10.4136 8.22725 10.4141 8.18035 10.3951 8.13953L 9.06435 5.28752L 10.0736 2.28009C 10.0757 2.27553 10.0747 2.27147 10.0757 2.26716ZM 8.74599 5.24949C 8.73388 5.28549 8.73599 5.32428 8.75204 5.35876L 10.0778 8.19987L 8.84676 10.6815C 8.82124 10.7332 8.82781 10.7943 8.86386 10.8397L 10.829 13.3058L 9.81342 17.6248C 5.00485 15.5709 1.50051 11.3957 0.425191 6.41448C 0.0155313 4.48584 0.772756 2.53261 2.39903 1.31869C 4.70807 -0.345003 7.98534 0.0854987 9.74711 2.26615L 8.74599 5.24949Z" />
    <path
       id="path1_stroke"
       d="M 10.0757 2.26716L 9.83337 2.20582L 9.83287 2.20786L 10.0757 2.26716ZM 10.0797 2.23598L 10.3297 2.24216L 10.3297 2.23598L 10.0797 2.23598ZM 10.0699 2.18071L 10.3041 2.09296L 10.3021 2.08803L 10.0699 2.18071ZM 10.056 2.15282L 10.2654 2.01623L 10.264 2.01408L 10.056 2.15282ZM 10.0502 2.14141L 10.2511 1.99248L 10.247 1.98726L 10.0502 2.14141ZM 2.20801 1.07657L 2.06184 0.873709L 2.05849 0.876211L 2.20801 1.07657ZM 0.116039 6.47558L 0.366039 6.47558L 0.366039 6.44933L 0.360586 6.42366L 0.116039 6.47558ZM 0.116039 6.47584L -0.133961 6.47584L -0.133961 6.50251L -0.128334 6.52858L 0.116039 6.47584ZM 9.86183 17.9817L 9.96026 17.7519L 9.95739 17.7507L 9.86183 17.9817ZM 9.88919 17.9904L 9.94268 17.7461L 9.94154 17.7459L 9.88919 17.9904ZM 9.92366 17.9942L 9.91806 18.2442L 9.92366 18.2442L 9.92366 17.9942ZM 10.0015 17.9721L 10.1224 18.191L 10.1267 18.1885L 10.0015 17.9721ZM 10.0126 17.9663L 10.1332 18.1853L 10.1438 18.1794L 10.1539 18.1725L 10.0126 17.9663ZM 10.0636 17.908L 9.84173 17.7928L 9.84122 17.7938L 10.0636 17.908ZM 10.0686 17.9021L 10.2958 18.0069L 10.2995 17.998L 10.0686 17.9021ZM 10.0713 17.8905L 10.3022 17.9863L 10.3051 17.9793L 10.3075 17.9722L 10.0713 17.8905ZM 10.0776 17.8758L 10.3209 17.9332L 10.3209 17.933L 10.0776 17.8758ZM 11.1529 13.3035L 10.9096 13.2458L 10.9095 13.2463L 11.1529 13.3035ZM 11.1242 13.1773L 11.3198 13.0215L 11.3197 13.0215L 11.1242 13.1773ZM 9.17275 10.7286L 8.94879 10.6175L 8.8781 10.76L 8.97724 10.8844L 9.17275 10.7286ZM 10.3936 8.26757L 10.6175 8.37866L 10.6175 8.37866L 10.3936 8.26757ZM 10.3951 8.13953L 10.6219 8.03429L 10.6217 8.03382L 10.3951 8.13953ZM 9.06435 5.28752L 8.82734 5.20798L 8.79555 5.3027L 8.8378 5.39323L 9.06435 5.28752ZM 10.0736 2.28009L 9.84661 2.17539L 9.84094 2.1877L 9.83662 2.20055L 10.0736 2.28009ZM 8.74599 5.24949L 8.98296 5.32915L 8.983 5.32902L 8.74599 5.24949ZM 8.75204 5.35876L 8.52539 5.46426L 8.52549 5.46448L 8.75204 5.35876ZM 10.0778 8.19987L 10.3018 8.31097L 10.3553 8.20319L 10.3044 8.09415L 10.0778 8.19987ZM 8.84676 10.6815L 8.6228 10.5704L 8.62257 10.5708L 8.84676 10.6815ZM 8.86386 10.8397L 8.6681 10.9952L 8.66834 10.9955L 8.86386 10.8397ZM 10.829 13.3058L 11.0724 13.363L 11.1002 13.2449L 11.0245 13.15L 10.829 13.3058ZM 9.81342 17.6248L 9.71522 17.8547L 9.98871 17.9715L 10.0568 17.682L 9.81342 17.6248ZM 0.425191 6.41448L 0.180645 6.46643L 0.18082 6.46724L 0.425191 6.41448ZM 2.39903 1.31869L 2.25286 1.11583L 2.24948 1.11835L 2.39903 1.31869ZM 9.74711 2.26615L 9.98413 2.34568L 10.0277 2.21569L 9.94158 2.10904L 9.74711 2.26615ZM 10.3181 2.32851C 10.3245 2.30047 10.3289 2.26264 10.3296 2.24215L 9.82976 2.2298C 9.82981 2.22754 9.83023 2.21827 9.83338 2.20582L 10.3181 2.32851ZM 10.3297 2.23598C 10.3297 2.22634 10.3288 2.19665 10.3246 2.1666L 9.83157 2.24958C 9.8302 2.24144 9.82983 2.23529 9.82972 2.23267C 9.82964 2.23098 9.82968 2.23019 9.82968 2.23598L 10.3297 2.23598ZM 10.3246 2.1666C 10.3185 2.13582 10.3082 2.10406 10.304 2.09298L 9.83585 2.26844C 9.83731 2.27234 9.83687 2.27134 9.83607 2.26878C 9.83513 2.26577 9.83315 2.25898 9.83157 2.24958L 10.3246 2.1666ZM 10.3021 2.08803C 10.2957 2.0721 10.2806 2.04073 10.2654 2.01623L 9.84661 2.28941C 9.83966 2.27874 9.83677 2.2709 9.83776 2.27338L 10.3021 2.08803ZM 10.264 2.01408C 10.2726 2.02707 10.2781 2.03815 10.2809 2.04416C 10.2824 2.04721 10.2834 2.04957 10.2838 2.05054C 10.284 2.05106 10.2845 2.05218 10.2838 2.05059C 10.2833 2.04932 10.28 2.04139 10.2753 2.03207C 10.2703 2.0221 10.2625 2.00803 10.2511 1.99254L 9.84937 2.29028C 9.83921 2.27657 9.83249 2.26436 9.82845 2.25632C 9.82643 2.2523 9.82493 2.24901 9.82402 2.24694C 9.82355 2.24589 9.82319 2.24505 9.82296 2.24451C 9.82304 2.24469 9.82266 2.2438 9.82269 2.24388C 9.82273 2.24396 9.8226 2.24366 9.82259 2.24364C 9.82256 2.24356 9.82315 2.24497 9.82385 2.24664C 9.82468 2.24858 9.82612 2.2519 9.828 2.25592C 9.8317 2.26384 9.83818 2.27679 9.84804 2.29156L 10.264 2.01408ZM 10.247 1.98726C 8.30875 -0.487527 4.63986 -0.983926 2.06186 0.873738L 2.35417 1.27939C 4.71891 -0.424597 8.08396 0.0363507 9.8534 2.29556L 10.247 1.98726ZM 2.05849 0.876211C 0.258901 2.21925 -0.583407 4.38522 -0.128509 6.52751L 0.360586 6.42366C -0.0522462 4.47947 0.708301 2.50776 2.35754 1.27692L 2.05849 0.876211ZM -0.133961 6.47558L -0.133961 6.47584L 0.366039 6.47584L 0.366039 6.47558L -0.133961 6.47558ZM -0.128334 6.52858C 0.99882 11.7506 4.69965 16.1169 9.76627 18.2128L 9.95739 17.7507C 5.03747 15.7155 1.45179 11.4794 0.360411 6.42309L -0.128334 6.52858ZM 9.76341 18.2116C 9.78389 18.2203 9.80225 18.2251 9.81617 18.2279C 9.82916 18.2305 9.83981 18.2316 9.84231 18.2319C 9.84302 18.232 9.84362 18.232 9.84381 18.2321C 9.84401 18.2321 9.84294 18.232 9.84326 18.232C 9.84236 18.2319 9.83965 18.2316 9.83607 18.2311C 9.82883 18.23 9.81563 18.2277 9.79958 18.2226L 9.95249 17.7465C 9.93407 17.7406 9.91851 17.7378 9.9089 17.7364C 9.90414 17.7357 9.90024 17.7353 9.89816 17.735C 9.89724 17.7349 9.89623 17.7348 9.89583 17.7348C 9.89543 17.7347 9.89567 17.7348 9.89556 17.7347C 9.89569 17.7348 9.90397 17.7356 9.91459 17.7377C 9.92614 17.74 9.94213 17.7442 9.96025 17.7519L 9.76341 18.2116ZM 9.79958 18.2226C 9.78494 18.2179 9.77397 18.2127 9.76828 18.2099C 9.76409 18.2078 9.75901 18.205 9.7635 18.2074C 9.76543 18.2085 9.77423 18.2133 9.78552 18.2182C 9.79754 18.2235 9.81502 18.2301 9.83684 18.2348L 9.94154 17.7459C 9.961 17.7501 9.97624 17.7559 9.98609 17.7602C 9.99099 17.7624 9.99489 17.7643 9.99739 17.7656C 9.99981 17.7668 10.0016 17.7677 10.0017 17.7678C 10.0017 17.7678 10.0017 17.7678 10.0014 17.7677C 10.001 17.7675 10.0002 17.767 9.99943 17.7666C 9.99769 17.7657 9.99451 17.764 9.99057 17.762C 9.98271 17.7581 9.9695 17.752 9.95249 17.7465L 9.79958 18.2226ZM 9.83571 18.2346C 9.86304 18.24 9.89863 18.2435 9.91806 18.2441L 9.92926 17.7442C 9.92873 17.7442 9.93405 17.7443 9.94268 17.7461L 9.83571 18.2346ZM 9.92366 18.2442C 9.92379 18.2442 9.92386 18.2442 9.92389 18.2442C 9.92391 18.2442 9.92391 18.2442 9.92392 18.2442C 9.92392 18.2442 9.92392 18.2442 9.92392 18.2442C 9.92392 18.2442 9.92392 18.2442 9.92392 18.2442C 9.92392 17.9942 9.92392 17.7442 9.92392 17.9942C 9.92392 18.2442 9.92392 17.9942 9.92392 17.7442C 9.92392 17.7442 9.92392 17.7442 9.92392 17.7442C 9.92392 17.7442 9.92392 17.7442 9.92392 17.7442C 9.92391 17.7442 9.92391 17.7442 9.92389 17.7442C 9.92386 17.7442 9.92379 17.7442 9.92366 17.7442L 9.92366 18.2442ZM 9.92392 18.2442C 9.994 18.2406 10.0802 18.2132 10.1224 18.191L 9.88069 17.7533C 9.88131 17.7529 9.89713 17.7442 9.92392 17.7442L 9.92392 18.2442ZM 10.1267 18.1885C 10.1225 18.1909 10.1194 18.1925 10.1204 18.192C 10.121 18.1917 10.1224 18.1909 10.1243 18.19C 10.1261 18.189 10.1301 18.1869 10.1332 18.1853L 9.892 17.7473C 9.8938 17.7463 9.89509 17.7456 9.89542 17.7455C 9.89536 17.7455 9.89518 17.7456 9.8939 17.7462C 9.89132 17.7475 9.8845 17.751 9.87641 17.7557L 10.1267 18.1885ZM 10.1539 18.1725C 10.201 18.1378 10.2588 18.0714 10.286 18.0221L 9.84122 17.7938C 9.84735 17.7819 9.85755 17.7694 9.87131 17.76L 10.1539 18.1725ZM 10.2855 18.0231C 10.2731 18.047 10.259 18.0644 10.2488 18.0755C 10.2439 18.0809 10.2396 18.0851 10.237 18.0875C 10.2347 18.0897 10.2326 18.0915 10.2332 18.091C 10.2333 18.0909 10.234 18.0903 10.2346 18.0897C 10.2353 18.0891 10.2371 18.0874 10.2384 18.0863C 10.2414 18.0834 10.2465 18.0785 10.2524 18.072C 10.2642 18.059 10.2816 18.0374 10.2956 18.0068L 9.84162 17.7974C 9.85518 17.768 9.87178 17.7474 9.88282 17.7353C 9.88825 17.7293 9.89288 17.7248 9.89551 17.7223C 9.89788 17.7201 9.89997 17.7183 9.89927 17.7189C 9.89914 17.719 9.89843 17.7196 9.89773 17.7203C 9.89704 17.7209 9.89524 17.7226 9.89402 17.7237C 9.89095 17.7266 9.88623 17.7312 9.8808 17.7371C 9.8697 17.7492 9.8548 17.7676 9.84173 17.7928L 10.2855 18.0231ZM 10.2995 17.998C 10.3078 17.9779 10.3122 17.9605 10.3145 17.9488C 10.3157 17.943 10.3165 17.9382 10.3169 17.9351C 10.3173 17.9325 10.3177 17.93 10.3177 17.9295C 10.3179 17.9286 10.3176 17.9302 10.3174 17.9321C 10.317 17.9343 10.3164 17.9381 10.3154 17.943C 10.3135 17.9527 10.3097 17.9682 10.3022 17.9863L 9.84037 17.7946C 9.83205 17.8147 9.82774 17.8321 9.82538 17.8438C 9.8242 17.8496 9.82343 17.8544 9.82295 17.8575C 9.82258 17.8601 9.82222 17.8626 9.82216 17.8631C 9.82205 17.864 9.82225 17.8624 9.82254 17.8605C 9.82287 17.8583 9.82348 17.8545 9.82446 17.8496C 9.82643 17.8399 9.83021 17.8244 9.83774 17.8063L 10.2995 17.998ZM 10.3075 17.9722C 10.3038 17.983 10.3 17.9912 10.298 17.9954C 10.2969 17.9977 10.2945 18.0024 10.2972 17.9971C 10.2999 17.9917 10.3129 17.9669 10.3209 17.9332L 9.83425 17.8184C 9.84091 17.7902 9.85167 17.7701 9.85207 17.7693C 9.85201 17.7694 9.85219 17.7691 9.85205 17.7694C 9.85192 17.7696 9.85161 17.7702 9.85129 17.7708C 9.85066 17.7721 9.849 17.7754 9.8477 17.778C 9.8445 17.7847 9.83966 17.7953 9.835 17.8087L 10.3075 17.9722ZM 10.3209 17.933L 11.3963 13.3608L 10.9095 13.2463L 9.83422 17.8185L 10.3209 17.933ZM 11.3962 13.3612C 11.4247 13.2407 11.3953 13.1164 11.3198 13.0215L 10.9287 13.333C 10.9105 13.3101 10.9021 13.2776 10.9097 13.2458L 11.3962 13.3612ZM 11.3197 13.0215L 9.36825 10.5728L 8.97724 10.8844L 10.9287 13.3331L 11.3197 13.0215ZM 9.39671 10.8397L 10.6175 8.37866L 10.1696 8.15647L 8.94879 10.6175L 9.39671 10.8397ZM 10.6175 8.37866C 10.6714 8.27008 10.6726 8.14359 10.6219 8.03429L 10.1684 8.24477C 10.1555 8.21711 10.1557 8.18443 10.1696 8.15647L 10.6175 8.37866ZM 10.6217 8.03382L 9.2909 5.18181L 8.8378 5.39323L 10.1686 8.24524L 10.6217 8.03382ZM 9.30136 5.36706L 10.3106 2.35963L 9.83662 2.20055L 8.82734 5.20798L 9.30136 5.36706ZM 10.3006 2.3848C 10.3211 2.34036 10.3238 2.30142 10.3246 2.28899C 10.3247 2.28655 10.3248 2.28453 10.3248 2.28457C 10.3248 2.28459 10.3247 2.28654 10.3248 2.28596C 10.3247 2.2868 10.3246 2.28811 10.3245 2.28973C 10.324 2.29603 10.3227 2.30958 10.3186 2.32647L 9.83287 2.20786C 9.82822 2.2269 9.82666 2.24258 9.82601 2.25099C 9.82576 2.2544 9.82553 2.2583 9.82548 2.25932C 9.82539 2.26117 9.82547 2.25941 9.82556 2.25808C 9.82606 2.24989 9.82822 2.21527 9.84661 2.17539L 10.3006 2.3848ZM 8.50902 5.16983C 8.47656 5.26637 8.48219 5.37146 8.52539 5.46426L 8.97869 5.25327C 8.98979 5.27711 8.99121 5.30461 8.98296 5.32915L 8.50902 5.16983ZM 8.52549 5.46448L 9.85129 8.30559L 10.3044 8.09415L 8.97859 5.25305L 8.52549 5.46448ZM 9.85388 8.08877L 8.6228 10.5704L 9.07071 10.7926L 10.3018 8.31097L 9.85388 8.08877ZM 8.62257 10.5708C 8.55405 10.7097 8.57217 10.8744 8.6681 10.9952L 9.05962 10.6842C 9.08346 10.7142 9.08842 10.7567 9.07095 10.7921L 8.62257 10.5708ZM 8.66834 10.9955L 10.6335 13.4616L 11.0245 13.15L 9.05938 10.6839L 8.66834 10.9955ZM 10.5857 13.2486L 9.57006 17.5675L 10.0568 17.682L 11.0724 13.363L 10.5857 13.2486ZM 9.91162 17.3949C 5.17498 15.3717 1.72718 11.2609 0.669561 6.36173L 0.18082 6.46724C 1.27385 11.5305 4.83472 15.7701 9.71522 17.8547L 9.91162 17.3949ZM 0.669735 6.36254C 0.28112 4.53298 0.997446 2.67686 2.54857 1.51903L 2.24948 1.11835C 0.548067 2.38836 -0.250057 4.43871 0.180647 6.46643L 0.669735 6.36254ZM 2.54517 1.52152C 4.74821 -0.0657914 7.87557 0.347436 9.55265 2.42326L 9.94158 2.10904C 8.09512 -0.176439 4.66792 -0.624215 2.25288 1.11586L 2.54517 1.52152ZM 9.5101 2.18661L 8.50898 5.16996L 8.983 5.32902L 9.98413 2.34568L 9.5101 2.18661Z" />
    <path
       id="path2_fill"
       d="M 6.66374 0.10756C 4.56782 -0.305448 2.37192 0.491918 1.0669 2.13888C 1.06638 2.13939 1.06612 2.13989 1.06585 2.1404C 1.06375 2.14268 1.06191 2.14471 1.06033 2.14674C 1.0548 2.15358 1.05322 2.16195 1.04901 2.16956C 1.04454 2.17716 1.03875 2.1835 1.03559 2.19212L 0.00763122 5.25532C -0.00447176 5.29158 -0.00210438 5.33088 0.0142083 5.36536L 1.36264 8.20621L 0.132081 10.6873C 0.10656 10.7388 0.113137 10.7994 0.148657 10.845L 2.09092 13.3111L 1.03191 17.8144C 1.0306 17.82 1.03217 17.8253 1.03138 17.8306C 1.03033 17.841 1.02981 17.8512 1.03086 17.8618C 1.03191 17.8722 1.03402 17.8816 1.03691 17.8915C 1.03875 17.8968 1.03823 17.9026 1.04059 17.9077C 1.04191 17.9108 1.04507 17.9118 1.04612 17.9141C 1.05848 17.9379 1.0748 17.9584 1.09795 17.9731C 1.10163 17.9754 1.10532 17.9762 1.10927 17.9782C 1.12216 17.9853 1.13531 17.9929 1.15057 17.9962C 1.16241 17.9987 1.17399 18 1.18583 18C 1.20583 18 1.22477 17.9954 1.24319 17.9886C 1.24477 17.9878 1.24661 17.9883 1.24819 17.9876C 6.24198 15.9223 9.8855 11.6208 10.9945 6.48167C 11.6189 3.5891 9.67659 0.729734 6.66374 0.10756ZM 10.6851 6.41981C 9.61871 11.3617 6.16042 15.508 1.41079 17.5791L 2.41507 13.3091C 2.42533 13.2652 2.41507 13.2194 2.38692 13.1836L 0.458335 10.7347L 1.67942 8.27315C 1.69942 8.23258 1.69994 8.18517 1.68047 8.14435L 0.326781 5.29259L 1.32686 2.3128C 2.56031 0.765228 4.62649 0.0165406 6.59928 0.405463C 9.44111 0.992395 11.2744 3.69026 10.6851 6.41981Z" />
    <path
       id="path3_stroke"
       d="M 6.66374 0.10756L 6.7143 -0.137284L 6.71208 -0.137723L 6.66374 0.10756ZM 1.0669 2.13888L 1.24038 2.3189L 1.25244 2.30727L 1.26285 2.29414L 1.0669 2.13888ZM 1.06585 2.1404L 1.24961 2.30991L 1.27233 2.28528L 1.28776 2.25554L 1.06585 2.1404ZM 1.06033 2.14674L 1.25489 2.30378L 1.25761 2.30029L 1.06033 2.14674ZM 1.04901 2.16956L 1.26459 2.29633L 1.26775 2.29062L 1.04901 2.16956ZM 1.03559 2.19212L 0.800757 2.10611L 0.798584 2.11258L 1.03559 2.19212ZM 0.00763122 5.25532L -0.229379 5.17579L -0.229505 5.17616L 0.00763122 5.25532ZM 0.0142083 5.36536L -0.211778 5.47227L -0.211641 5.47256L 0.0142083 5.36536ZM 1.36264 8.20621L 1.5866 8.3173L 1.64051 8.20861L 1.58849 8.09901L 1.36264 8.20621ZM 0.132081 10.6873L -0.091885 10.5762L -0.0918938 10.5762L 0.132081 10.6873ZM 0.148657 10.845L -0.0486324 10.9986L -0.0477448 10.9997L 0.148657 10.845ZM 2.09092 13.3111L 2.33428 13.3684L 2.36186 13.2511L 2.28732 13.1565L 2.09092 13.3111ZM 1.03191 17.8144L 1.27523 17.8718L 1.27527 17.8716L 1.03191 17.8144ZM 1.03138 17.8306L 0.783823 17.7939L 0.782656 17.8055L 1.03138 17.8306ZM 1.03086 17.8618L 0.78207 17.8864L 0.78213 17.887L 1.03086 17.8618ZM 1.03691 17.8915L 0.796697 17.9618L 0.800647 17.9732L 1.03691 17.8915ZM 1.04059 17.9077L 1.27016 17.8085L 1.26711 17.8019L 1.04059 17.9077ZM 1.04612 17.9141L 0.818857 18.0189L 0.824213 18.0292L 1.04612 17.9141ZM 1.09795 17.9731L 0.963912 18.1842L 0.966298 18.1857L 1.09795 17.9731ZM 1.10927 17.9782L 1.2299 17.7591L 1.22354 17.7558L 1.10927 17.9782ZM 1.15057 17.9962L 1.09779 18.2406L 1.09823 18.2407L 1.15057 17.9962ZM 1.24319 17.9886L 1.33029 18.2229L 1.34121 18.2189L 1.3517 18.2138L 1.24319 17.9886ZM 1.24819 17.9876L 1.15264 17.7566L 1.14608 17.7593L 1.13967 17.7624L 1.24819 17.9876ZM 10.9945 6.48167L 10.7501 6.42893L 10.7501 6.42894L 10.9945 6.48167ZM 10.6851 6.41981L 10.4407 6.36705L 10.4407 6.36708L 10.6851 6.41981ZM 1.41079 17.5791L 1.16743 17.5219L 1.05314 18.0078L 1.51071 17.8083L 1.41079 17.5791ZM 2.41507 13.3091L 2.65843 13.3663L 2.6585 13.3661L 2.41507 13.3091ZM 2.38692 13.1836L 2.58333 13.0289L 2.58332 13.0289L 2.38692 13.1836ZM 0.458335 10.7347L 0.234376 10.6236L 0.164136 10.7652L 0.261929 10.8894L 0.458335 10.7347ZM 1.67942 8.27315L 1.90338 8.38424L 1.90366 8.38368L 1.67942 8.27315ZM 1.68047 8.14435L 1.45463 8.25156L 1.45483 8.25198L 1.68047 8.14435ZM 0.326781 5.29259L 0.089773 5.21305L 0.0576787 5.30868L 0.100934 5.3998L 0.326781 5.29259ZM 1.32686 2.3128L 1.13135 2.15698L 1.10388 2.19146L 1.08985 2.23326L 1.32686 2.3128ZM 6.59928 0.405463L 6.64985 0.16062L 6.64764 0.160184L 6.59928 0.405463ZM 6.71208 -0.137723C 4.52617 -0.568462 2.2353 0.261788 0.870961 1.98362L 1.26285 2.29414C 2.50854 0.722048 4.60947 -0.0424337 6.61541 0.352843L 6.71208 -0.137723ZM 0.893433 1.95886C 0.86597 1.98993 0.844152 2.02486 0.843946 2.02526L 1.28776 2.25554C 1.28791 2.25525 1.27228 2.28816 1.24038 2.3189L 0.893433 1.95886ZM 0.882094 1.97089C 0.879328 1.97389 0.870585 1.98379 0.863041 1.99319L 1.25761 2.30029C 1.25436 2.30447 1.25174 2.3075 1.25052 2.30888C 1.2494 2.31015 1.24873 2.31086 1.24961 2.30991L 0.882094 1.97089ZM 0.86579 1.98972C 0.839594 2.02217 0.826808 2.05348 0.823141 2.06235C 0.822209 2.06461 0.821376 2.06668 0.821062 2.06747C 0.820747 2.06825 0.821682 2.06598 0.821399 2.06667C 0.822291 2.06455 0.825301 2.05749 0.830281 2.04849L 1.26775 2.29062C 1.27483 2.27782 1.27962 2.26686 1.28216 2.26082C 1.28327 2.25817 1.28444 2.25531 1.28491 2.25413C 1.28555 2.25254 1.28538 2.25297 1.28521 2.25337C 1.28481 2.25435 1.28213 2.26088 1.27762 2.26937C 1.27287 2.27833 1.26555 2.29052 1.25486 2.30376L 0.86579 1.98972ZM 0.833514 2.04283C 0.835066 2.04019 0.83637 2.03812 0.837231 2.03679C 0.836709 2.03758 0.838516 2.03483 0.838638 2.03465C 0.838869 2.0343 0.836466 2.0378 0.833597 2.04209C 0.827332 2.05151 0.812466 2.07441 0.800845 2.10614L 1.27034 2.2781C 1.26188 2.30121 1.25149 2.31663 1.25002 2.31883C 1.24959 2.31948 1.24938 2.31979 1.24983 2.31913C 1.25027 2.31849 1.25121 2.31712 1.25231 2.3155C 1.25462 2.3121 1.25933 2.3051 1.26451 2.29628L 0.833514 2.04283ZM 0.798584 2.11258L -0.229379 5.17579L 0.244642 5.33486L 1.2726 2.27166L 0.798584 2.11258ZM -0.229505 5.17616C -0.262016 5.27355 -0.255661 5.37952 -0.211777 5.47227L 0.240194 5.25845C 0.251452 5.28224 0.253072 5.30961 0.244767 5.33449L -0.229505 5.17616ZM -0.211641 5.47256L 1.13679 8.31341L 1.58849 8.09901L 0.240058 5.25816L -0.211641 5.47256ZM 1.13867 8.09513L -0.091885 10.5762L 0.356048 10.7984L 1.5866 8.3173L 1.13867 8.09513ZM -0.0918938 10.5762C -0.160964 10.7155 -0.141867 10.8788 -0.0486291 10.9986L 0.345943 10.6915C 0.368141 10.72 0.374084 10.762 0.356056 10.7984L -0.0918938 10.5762ZM -0.0477448 10.9997L 1.89452 13.4658L 2.28732 13.1565L 0.345059 10.6903L -0.0477448 10.9997ZM 1.84756 13.2539L 0.788549 17.7572L 1.27527 17.8716L 2.33428 13.3684L 1.84756 13.2539ZM 0.788587 17.757C 0.783629 17.778 0.782027 17.7962 0.781547 17.8095C 0.781095 17.8221 0.781622 17.8322 0.781748 17.8348C 0.781784 17.8356 0.781817 17.8362 0.78183 17.8364C 0.781843 17.8367 0.781805 17.8359 0.781816 17.8361C 0.781784 17.8354 0.781675 17.833 0.781634 17.8297C 0.781554 17.8233 0.781668 17.8103 0.784088 17.794L 1.27868 17.8673C 1.2815 17.8483 1.28171 17.8327 1.2816 17.8236C 1.28154 17.8189 1.28138 17.8152 1.28129 17.8131C 1.28124 17.8122 1.2812 17.8112 1.28117 17.8108C 1.28115 17.8104 1.28116 17.8105 1.28115 17.8104C 1.28116 17.8106 1.28126 17.8126 1.28132 17.8153C 1.28138 17.8181 1.28141 17.8223 1.28122 17.8276C 1.28084 17.8381 1.27953 17.8536 1.27523 17.8718L 0.788587 17.757ZM 0.782656 17.8055C 0.781061 17.822 0.779875 17.857 0.782071 17.8864L 1.27965 17.8372C 1.28093 17.8502 1.27982 17.8587 1.28011 17.8558L 0.782656 17.8055ZM 0.78213 17.887C 0.785136 17.9122 0.791956 17.9441 0.796977 17.9617L 1.27684 17.8213C 1.27679 17.8211 1.2773 17.8228 1.27791 17.8257C 1.27856 17.8288 1.27917 17.8325 1.27959 17.8366L 0.78213 17.887ZM 0.800647 17.9732C 0.795406 17.9581 0.792947 17.9458 0.79186 17.9397C 0.791077 17.9353 0.790282 17.9296 0.791077 17.9351C 0.791434 17.9376 0.792878 17.948 0.795782 17.9604C 0.798855 17.9736 0.804221 17.9924 0.814076 18.0135L 1.26711 17.8019C 1.27578 17.8205 1.28033 17.8366 1.28277 17.8471C 1.284 17.8524 1.2848 17.8567 1.28527 17.8595C 1.28573 17.8622 1.28601 17.8641 1.28603 17.8643C 1.28602 17.8642 1.2859 17.8633 1.28564 17.8616C 1.28535 17.8595 1.2848 17.8559 1.284 17.8514C 1.28242 17.8426 1.27933 17.8276 1.27317 17.8098L 0.800647 17.9732ZM 0.811127 18.0069C 0.824249 18.0373 0.841043 18.0601 0.855161 18.0759C 0.86201 18.0836 0.868198 18.0896 0.872713 18.0938C 0.877086 18.0979 0.880697 18.1009 0.881886 18.1019C 0.882455 18.1024 0.88259 18.1025 0.88269 18.1026C 0.882585 18.1025 0.881796 18.1019 0.880758 18.101C 0.878823 18.0993 0.874114 18.0952 0.868414 18.0895C 0.857313 18.0784 0.83579 18.0549 0.819102 18.0188L 1.27314 17.8093C 1.25592 17.772 1.23361 17.7476 1.22158 17.7356C 1.21541 17.7294 1.21021 17.7248 1.20775 17.7227C 1.2067 17.7218 1.2054 17.7207 1.20503 17.7204C 1.20421 17.7197 1.20495 17.7203 1.20502 17.7204C 1.20567 17.7209 1.20873 17.7235 1.21257 17.7271C 1.21655 17.7308 1.22222 17.7363 1.22857 17.7434C 1.24169 17.7581 1.2576 17.7797 1.27006 17.8085L 0.811127 18.0069ZM 0.824213 18.0292C 0.84868 18.0738 0.90758 18.1443 0.96392 18.1842L 1.23198 17.7621C 1.25531 17.7769 1.26579 17.7946 1.26802 17.7989L 0.824213 18.0292ZM 0.966298 18.1857C 0.988898 18.1997 1.00894 18.2072 1.01294 18.2088C 1.017 18.2104 1.01343 18.209 1.01165 18.2082C 1.00843 18.2069 1.0024 18.2044 0.994991 18.2006L 1.22354 17.7558C 1.21416 17.751 1.20618 17.7476 1.20105 17.7455C 1.19897 17.7447 1.19636 17.7436 1.19536 17.7432C 1.19435 17.7428 1.19421 17.7428 1.19408 17.7427C 1.19433 17.7428 1.21069 17.7489 1.2296 17.7606L 0.966298 18.1857ZM 0.988679 18.1972C 0.99929 18.203 1.04527 18.2261 1.09779 18.2406L 1.20335 17.7518C 1.21994 17.7554 1.23136 17.7605 1.2354 17.7624C 1.23742 17.7633 1.23831 17.7638 1.23723 17.7633C 1.23572 17.7625 1.23366 17.7613 1.22985 17.7592L 0.988679 18.1972ZM 1.09823 18.2407C 1.12258 18.2455 1.16036 18.2496 1.18583 18.25L 1.18583 17.75C 1.19237 17.75 1.19834 17.7508 1.20292 17.7517L 1.09823 18.2407ZM 1.18583 18.25C 1.2353 18.2483 1.29772 18.2346 1.33029 18.2229L 1.15609 17.7543C 1.15665 17.754 1.15624 17.7542 1.15658 17.7541C 1.15691 17.754 1.15794 17.7536 1.15805 17.7536C 1.15934 17.7532 1.16131 17.7527 1.16388 17.7522C 1.16914 17.7511 1.17664 17.75 1.18583 17.75L 1.18583 18.25ZM 1.3517 18.2138C 1.32496 18.2267 1.30129 18.2321 1.28629 18.2347C 1.27886 18.236 1.27284 18.2366 1.26933 18.237C 1.26613 18.2373 1.26342 18.2375 1.26413 18.2374C 1.26423 18.2374 1.26507 18.2373 1.26591 18.2373C 1.26674 18.2372 1.26904 18.237 1.27061 18.2369C 1.27455 18.2365 1.28099 18.2358 1.28884 18.2344C 1.30467 18.2317 1.32917 18.2261 1.3567 18.2128L 1.13967 17.7624C 1.16641 17.7495 1.19009 17.744 1.20508 17.7415C 1.21252 17.7402 1.21853 17.7396 1.22204 17.7392C 1.22524 17.7389 1.22796 17.7387 1.22725 17.7388C 1.22714 17.7388 1.2263 17.7388 1.22547 17.7389C 1.22463 17.739 1.22233 17.7392 1.22076 17.7393C 1.21682 17.7397 1.21039 17.7404 1.20253 17.7418C 1.1867 17.7444 1.1622 17.7501 1.13467 17.7634L 1.3517 18.2138ZM 1.34373 18.2186C 6.41088 16.123 10.112 11.7564 11.2389 6.53441L 10.7501 6.42894C 9.65901 11.4852 6.07308 15.7216 1.15264 17.7566L 1.34373 18.2186ZM 11.2389 6.53442C 11.8945 3.4971 9.85411 0.511117 6.7143 -0.137274L 6.61318 0.352394C 9.49908 0.94835 11.3432 3.68109 10.7501 6.42893L 11.2389 6.53442ZM 10.4407 6.36708C 9.39191 11.2275 5.98947 15.3098 1.31086 17.35L 1.51071 17.8083C 6.33136 15.7062 9.84551 11.4959 10.9295 6.47254L 10.4407 6.36708ZM 1.65415 17.6364L 2.65843 13.3663L 2.17171 13.2519L 1.16743 17.5219L 1.65415 17.6364ZM 2.6585 13.3661C 2.68623 13.2475 2.65809 13.1239 2.58333 13.0289L 2.19051 13.3383C 2.17205 13.3148 2.16443 13.283 2.17164 13.2522L 2.6585 13.3661ZM 2.58332 13.0289L 0.654741 10.58L 0.261929 10.8894L 2.19051 13.3383L 2.58332 13.0289ZM 0.682293 10.8458L 1.90338 8.38424L 1.45546 8.16205L 0.234376 10.6236L 0.682293 10.8458ZM 1.90366 8.38368C 1.95709 8.27528 1.95894 8.14747 1.90612 8.03672L 1.45483 8.25198C 1.44094 8.22287 1.44174 8.18989 1.45518 8.16261L 1.90366 8.38368ZM 1.90632 8.03715L 0.552628 5.18539L 0.100934 5.3998L 1.45463 8.25156L 1.90632 8.03715ZM 0.563789 5.37214L 1.56386 2.39235L 1.08985 2.23326L 0.089773 5.21305L 0.563789 5.37214ZM 1.52236 2.46862C 2.69655 0.995392 4.66808 0.279551 6.55093 0.650742L 6.64764 0.160184C 4.58491 -0.24647 2.42406 0.535065 1.13135 2.15698L 1.52236 2.46862ZM 6.54871 0.650295C 9.26361 1.21101 10.9988 3.78227 10.4407 6.36705L 10.9295 6.47257C 11.5501 3.59825 9.61861 0.773778 6.64985 0.16063L 6.54871 0.650295Z" />
  </defs>
  <path
     style="fill:#aa0000"
     d="M 9.7016903,17.771342 C 5.8109026,15.677108 2.9951731,12.183192 1.8970862,8.0869518 1.3225363,5.9436835 1.726902,4.2774092 3.1443867,2.9471869 4.3237453,1.8404313 6.0040381,1.3798063 7.6162128,1.7213084 8.6594914,1.942303 10.186036,2.8329456 10.337049,3.3087442 c 0.03002,0.094582 -0.151946,0.758835 -0.4364071,1.5930705 l -0.4878951,1.430847 0.6495592,1.3937029 c 0.357257,0.7665366 0.649558,1.43584 0.649558,1.487341 0,0.051501 -0.266949,0.6265199 -0.59322,1.2778194 -0.3262711,0.6513 -0.5927277,1.23236 -0.5921257,1.291244 6.017e-4,0.05888 0.4391614,0.658345 0.9745767,1.332134 0.535414,0.673791 0.973481,1.275704 0.973481,1.337586 0,0.06188 -0.190678,0.918325 -0.423729,1.903207 -0.23305,0.984881 -0.423728,1.803519 -0.423728,1.819194 0,0.0753 -0.188525,-0.0069 -0.9254287,-0.403548 z"
     id="path3357"
     inkscape:connector-curvature="0" />
  <path
     style="fill:#aa0000"
     d="m 13.762712,17.958431 c 0,-0.04308 0.190678,-0.886235 0.423729,-1.873685 0.233051,-0.98745 0.423728,-1.827834 0.423728,-1.86752 0,-0.03969 -0.419491,-0.608615 -0.932203,-1.264287 -0.512712,-0.655672 -0.932203,-1.230383 -0.932203,-1.277135 0,-0.04675 0.247881,-0.579678 0.550847,-1.184279 0.302966,-0.6046007 0.550848,-1.1766197 0.550848,-1.271153 0,-0.094533 -0.286017,-0.7735911 -0.635594,-1.5090173 -0.349576,-0.7354263 -0.635593,-1.3926984 -0.635593,-1.4606048 0,-0.067906 0.193682,-0.714605 0.430404,-1.437108 L 13.437079,3.5 13.975994,2.9760521 c 1.199327,-1.1660163 3.002445,-1.6371688 4.651463,-1.2154212 0.95354,0.2438746 1.607058,0.6213876 2.34594,1.3551617 0.733669,0.7285977 1.108046,1.397817 1.305339,2.3333599 0.160767,0.7623494 0.15938,1.1688367 -0.0067,1.9739117 -0.691033,3.3490218 -2.848763,6.6909608 -5.770943,8.9381608 -0.935309,0.719268 -2.738343,1.770932 -2.738343,1.597206 z"
     id="path3359"
     inkscape:connector-curvature="0" />
</svg>
