<?xml version="1.0" encoding="UTF-8"?>
<svg width="28px" height="23px" viewBox="0 0 28 23" version="1.1" xmlns="http://www.w3.org/2000/svg" xmlns:xlink="http://www.w3.org/1999/xlink">
    <!-- Generator: Sketch 42 (36781) - http://www.bohemiancoding.com/sketch -->
    <title>Group 2</title>
    <desc>Created with Sketch.</desc>
    <defs></defs>
    <g id="Page-1" stroke="none" stroke-width="1" fill="none" fill-rule="evenodd">
        <g id="inactiveUITabBar" transform="translate(-34.000000, -14.000000)" fill-rule="nonzero">
            <g id="Canvas">
                <g id="UITabBar">
                    <g id="----▶︎-Music">
                        <g id="My-Music">
                            <g id="UITabBar">
                                <g id="First-Selected" transform="translate(24.000000, 13.000000)">
                                    <g id="Group-2" transform="translate(9.000000, 0.000000)">
                                        <g id="Icon" opacity="0.4" transform="translate(0.000000, 2.000000)" fill="#000000">
                                            <g id="path7_stroke-link" transform="translate(0.729000, 0.640000)">
                                                <path d="M11.7387,3.64813 L12.2387,3.64813 L12.2387,3.50044 L12.1584,3.37645 L11.7387,3.64813 Z M1.00419253,6.67273 L1.503736,6.69409 L1.504193,6.68342 L1.504193,6.67273 L1.00419253,6.67273 Z M11.7387,20.2 L11.7387,20.7 L11.7387,20.2 Z M22.2251,8.31717 L21.7474,8.16909 L21.7441,8.18077 L22.2251,8.31717 Z M11.7387,3.64813 L11.2387,3.64813 L11.2387,5.34086 L12.1584,3.91981 L11.7387,3.64813 Z M12.1584,3.37645 C11.0383,1.645745 9.06327,0.5 6.81871,0.5 L6.81871,1.5 C8.71726,1.5 10.37931,2.46804 11.3189,3.91981 L12.1584,3.37645 Z M6.81871,0.5 C3.34301,0.5 0.504193,3.25206 0.504193,6.67273 L1.504193,6.67273 C1.504193,3.82747 3.87188,1.5 6.81871,1.5 L6.81871,0.5 Z M0.504649,6.65136 C0.439371,8.17749 1.067469,9.81586 1.996097,11.3769 C2.92525,12.9361 4.20575,14.4986 5.50607,15.8576 C6.80842,17.2176 8.16527,18.4141 9.25425,19.2597 C9.80214,19.6847 10.30023,20.0345 10.68895,20.2724 C10.88732,20.3934 11.0776,20.4968 11.2277,20.5648 C11.3672,20.6276 11.5548,20.7 11.7387,20.7 L11.7387,19.7 C11.7842,19.7 11.7649,19.71 11.6383,19.653 C11.5223,19.6012 11.3873,19.5274 11.2105,19.4191 C10.84867,19.1983 10.39629,18.8804 9.86741,18.4697 C8.80282,17.6437 7.5009,16.4962 6.22848,15.1661 C4.95405,13.8352 3.74383,12.3617 2.85553,10.8657 C1.966712,9.37154 1.450644,7.93532 1.503736,6.69409 L0.504649,6.65136 Z M11.7387,20.7 C11.9094,20.7 12.0785,20.6382 12.2034,20.5841 C12.335,20.5268 12.5017,20.4389 12.6713,20.3377 C13.0022,20.1396 13.4251,19.8472 13.8904,19.4918 C14.8141,18.7856 15.9765,17.7794 17.1429,16.6156 C19.4593,14.3032 21.9116,11.2557 22.7062,8.45356 L21.7441,8.18077 C21.024,10.72026 18.7341,13.6142 16.4364,15.9078 C15.2956,17.047 14.183,18.0099 13.2833,18.6972 C12.8368,19.0385 12.4609,19.2988 12.1583,19.4793 C12.0111,19.5674 11.9023,19.6253 11.8064,19.6663 C11.7038,19.7107 11.6932,19.7 11.7387,19.7 L11.7387,20.7 Z M22.7027,8.4652 C22.8735,7.90978 22.9717,7.2835 22.9732,6.67273 L21.9732,6.67273 C21.9747,7.20567 21.8994,7.68356 21.7475,8.16913 L22.7027,8.4652 Z M22.9732,6.67273 C22.9732,3.25206 20.1344,0.5 16.6587,0.5 L16.6587,1.5 C19.6055,1.5 21.9732,3.82747 21.9732,6.67273 L22.9732,6.67273 Z M16.6587,0.5 C14.4141,0.5 12.4391,1.645745 11.3189,3.37645 L12.1584,3.91981 C13.0981,2.46804 14.7601,1.5 16.6587,1.5 L16.6587,0.5 Z M12.2387,3.64813 L12.2387,3.64813 L11.2387,3.64813 L11.2387,3.64813 L12.2387,3.64813 Z" id="path7_stroke"></path>
                                            </g>
                                        </g>
                                        <g id="Icon" transform="translate(5.000000, 0.000000)">
                                            <g id="path8_fill-link" transform="translate(1.729000, 1.640000)" fill="#FAFAFA">
                                                <path d="M10.7387,2.64813 C9.70879,1.05689 7.89026,0 5.81871,0 C2.60744,0 0.00419253,2.53977 0.00419253,5.67273 C-0.232547,11.2074 9.631,19.2 10.7387,19.2 C11.7405,19.2 19.7105,12.6588 21.2251,7.31717 C21.3865,6.79667 21.4732,6.24458 21.4732,5.67273 C21.4732,2.53977 18.8699,0 15.6587,0 C13.5871,0 11.7686,1.05689 10.7387,2.64813 L10.7387,2.64813 Z" id="path8_fill"></path>
                                            </g>
                                            <g id="path7_stroke-link" transform="translate(0.729000, 0.640000)" fill="#949488">
                                                <path d="M11.7387,3.64813 L12.2387,3.64813 L12.2387,3.50044 L12.1584,3.37645 L11.7387,3.64813 Z M1.00419253,6.67273 L1.503736,6.69409 L1.504193,6.68342 L1.504193,6.67273 L1.00419253,6.67273 Z M11.7387,20.2 L11.7387,20.7 L11.7387,20.2 Z M22.2251,8.31717 L21.7474,8.16909 L21.7441,8.18077 L22.2251,8.31717 Z M11.7387,3.64813 L11.2387,3.64813 L11.2387,5.34086 L12.1584,3.91981 L11.7387,3.64813 Z M12.1584,3.37645 C11.0383,1.645745 9.06327,0.5 6.81871,0.5 L6.81871,1.5 C8.71726,1.5 10.37931,2.46804 11.3189,3.91981 L12.1584,3.37645 Z M6.81871,0.5 C3.34301,0.5 0.504193,3.25206 0.504193,6.67273 L1.504193,6.67273 C1.504193,3.82747 3.87188,1.5 6.81871,1.5 L6.81871,0.5 Z M0.504649,6.65136 C0.439371,8.17749 1.067469,9.81586 1.996097,11.3769 C2.92525,12.9361 4.20575,14.4986 5.50607,15.8576 C6.80842,17.2176 8.16527,18.4141 9.25425,19.2597 C9.80214,19.6847 10.30023,20.0345 10.68895,20.2724 C10.88732,20.3934 11.0776,20.4968 11.2277,20.5648 C11.3672,20.6276 11.5548,20.7 11.7387,20.7 L11.7387,19.7 C11.7842,19.7 11.7649,19.71 11.6383,19.653 C11.5223,19.6012 11.3873,19.5274 11.2105,19.4191 C10.84867,19.1983 10.39629,18.8804 9.86741,18.4697 C8.80282,17.6437 7.5009,16.4962 6.22848,15.1661 C4.95405,13.8352 3.74383,12.3617 2.85553,10.8657 C1.966712,9.37154 1.450644,7.93532 1.503736,6.69409 L0.504649,6.65136 Z M11.7387,20.7 C11.9094,20.7 12.0785,20.6382 12.2034,20.5841 C12.335,20.5268 12.5017,20.4389 12.6713,20.3377 C13.0022,20.1396 13.4251,19.8472 13.8904,19.4918 C14.8141,18.7856 15.9765,17.7794 17.1429,16.6156 C19.4593,14.3032 21.9116,11.2557 22.7062,8.45356 L21.7441,8.18077 C21.024,10.72026 18.7341,13.6142 16.4364,15.9078 C15.2956,17.047 14.183,18.0099 13.2833,18.6972 C12.8368,19.0385 12.4609,19.2988 12.1583,19.4793 C12.0111,19.5674 11.9023,19.6253 11.8064,19.6663 C11.7038,19.7107 11.6932,19.7 11.7387,19.7 L11.7387,20.7 Z M22.7027,8.4652 C22.8735,7.90978 22.9717,7.2835 22.9732,6.67273 L21.9732,6.67273 C21.9747,7.20567 21.8994,7.68356 21.7475,8.16913 L22.7027,8.4652 Z M22.9732,6.67273 C22.9732,3.25206 20.1344,0.5 16.6587,0.5 L16.6587,1.5 C19.6055,1.5 21.9732,3.82747 21.9732,6.67273 L22.9732,6.67273 Z M16.6587,0.5 C14.4141,0.5 12.4391,1.645745 11.3189,3.37645 L12.1584,3.91981 C13.0981,2.46804 14.7601,1.5 16.6587,1.5 L16.6587,0.5 Z M12.2387,3.64813 L12.2387,3.64813 L11.2387,3.64813 L11.2387,3.64813 L12.2387,3.64813 Z" id="path7_stroke"></path>
                                            </g>
                                        </g>
                                    </g>
                                </g>
                            </g>
                        </g>
                    </g>
                </g>
            </g>
        </g>
    </g>
</svg>