<svg width="376" height="78" viewBox="0 0 376 78" version="1.1" xmlns="http://www.w3.org/2000/svg" xmlns:xlink="http://www.w3.org/1999/xlink" xmlns:figma="http://www.figma.com/figma/ns">
<title>UITabBar</title>
<desc>Created using Figma</desc>
<g id="Canvas" transform="translate(-323 -990)" figma:type="canvas">
<g id="UITabBar" style="mix-blend-mode:normal;isolation:isolate;" figma:type="frame">
<g id="----&#226;&#150;&#182;&#239;&#184;&#142;-Music" style="mix-blend-mode:normal;isolation:isolate;" figma:type="frame">
<g id="My-Music" style="mix-blend-mode:normal;isolation:isolate;" figma:type="frame">
<g id="UITabBar" style="mix-blend-mode:normal;isolation:isolate;" figma:type="frame">
<g id="Background" style="mix-blend-mode:normal;isolation:isolate;" figma:type="frame">
<g id="Vector" style="mix-blend-mode:normal;" opacity="0.6" filter="url(#filter0_d)" figma:type="vector">
<use xlink:href="#path0_fill" transform="translate(317.375 1002)" fill="#F6F6F6" style="mix-blend-mode:normal;"/>
</g>
</g>
<g id="Fifth" style="mix-blend-mode:normal;" figma:type="frame">
<g id="Play" style="mix-blend-mode:normal;" figma:type="text">
<use xlink:href="#path1_fill" transform="translate(638.774 1044.8)" fill="#94948E" style="mix-blend-mode:normal;"/>
</g>
<g id="Icon" style="mix-blend-mode:normal;" figma:type="vector">
<use xlink:href="#path2_fill" transform="translate(649.663 1016.95)" fill="#ADADA8" style="mix-blend-mode:normal;"/>
</g>
</g>
<g id="Second" style="mix-blend-mode:normal;" figma:type="frame">
<g id="Settings" style="mix-blend-mode:normal;" opacity="0.4" figma:type="text">
<use xlink:href="#path3_fill" transform="translate(493.432 1044.6)" style="mix-blend-mode:normal;"/>
</g>
<g id="noun_97279_cc" style="mix-blend-mode:normal;" figma:type="frame">
<g id="Group" style="mix-blend-mode:normal;" figma:type="frame">
<g id="Vector" style="mix-blend-mode:normal;" figma:type="vector">
<use xlink:href="#path4_fill" transform="translate(501.89 1014.5)" fill="#949488" style="mix-blend-mode:normal;"/>
<mask id="mask0_outline_out">
<rect id="mask0_outline_inv" fill="white" x="-1" y="-1" width="24" height="25" transform="translate(501.89 1014.5)"/>
<use xlink:href="#path4_fill" fill="black" transform="translate(501.89 1014.5)"/>
</mask>
<g mask="url(#mask0_outline_out)">
<use xlink:href="#path5_stroke_2x" transform="translate(501.89 1014.5)" fill="#949494" style="mix-blend-mode:normal;"/>
</g>
</g>
</g>
</g>
</g>
<g id="First-Selected" style="mix-blend-mode:normal;" figma:type="frame">
<g id="Favorites" style="mix-blend-mode:normal;" opacity="0.4" figma:type="text">
<use xlink:href="#path6_fill" transform="translate(341.992 1044.6)" style="mix-blend-mode:normal;"/>
</g>
<g id="Icon" style="mix-blend-mode:normal;" opacity="0.4" figma:type="vector">
<use xlink:href="#path7_stroke" transform="translate(351.729 1018.64)" style="mix-blend-mode:normal;"/>
</g>
<g id="Icon" style="mix-blend-mode:normal;" figma:type="vector">
<use xlink:href="#path8_fill" transform="translate(356.729 1016.64)" fill="#D0E6F2" style="mix-blend-mode:normal;"/>
<use xlink:href="#path7_stroke" transform="translate(356.729 1016.64)" fill="#949488" style="mix-blend-mode:normal;"/>
</g>
</g>
</g>
</g>
</g>
</g>
</g>
<defs>
<filter id="filter0_d" filterUnits="userSpaceOnUse" x="323" y="990" width="376" height="78" color-interpolation-filters="sRGB">
<feFlood flood-opacity="0" result="BackgroundImageFix"/>
<desc>type="dropShadow" x="0" y="-0.509101" size="11.04" spread="0" color="0,0,0,0.21" blend="normal"</desc>
<feColorMatrix in="SourceAlpha" type="matrix" values="0 0 0 0 0 0 0 0 0 0 0 0 0 0 0 0 0 0 255 0"/>
<feOffset dx="0" dy="-0.509101"/>
<feGaussianBlur stdDeviation="5.52"/>
<feColorMatrix type="matrix" values="0 0 0 0 0 0 0 0 0 0 0 0 0 0 0 0 0 0 0.21 0"/>
<feBlend mode="normal" in2="BackgroundImageFix" result="effect1_dropShadow"/>
<feBlend mode="normal" in="SourceGraphic" in2="effect1_dropShadow" result="shape"/>
</filter>
<path id="path0_fill" d="M 394 0L 0 0L 0 66L 394 66L 394 0Z"/>
<path id="path1_fill" d="M 13.7683 6.16614L 13.7683 9L 12.8137 9L 12.8137 1.76122L 15.4835 1.76122C 16.2757 1.76122 16.8955 1.9634 17.3429 2.36777C 17.7937 2.77213 18.0191 3.30742 18.0191 3.97362C 18.0191 4.67629 17.7986 5.2182 17.3578 5.59937C 16.9203 5.97721 16.2922 6.16614 15.4736 6.16614L 13.7683 6.16614ZM 13.7683 5.38558L 15.4835 5.38558C 15.9939 5.38558 16.385 5.26626 16.6568 5.02762C 16.9286 4.78567 17.0645 4.43765 17.0645 3.98357C 17.0645 3.55269 16.9286 3.20798 16.6568 2.94946C 16.385 2.69093 16.0122 2.55669 15.5382 2.54675L 13.7683 2.54675L 13.7683 5.38558ZM 20.0923 9L 19.1725 9L 19.1725 1.36349L 20.0923 1.36349L 20.0923 9ZM 24.8899 9C 24.8369 8.89394 24.7938 8.70501 24.7607 8.43323C 24.3331 8.87737 23.8227 9.09943 23.2294 9.09943C 22.6991 9.09943 22.2632 8.95028 21.9218 8.65198C 21.5838 8.35037 21.4147 7.9692 21.4147 7.50849C 21.4147 6.94835 21.6268 6.51416 22.0511 6.20591C 22.4787 5.89435 23.0786 5.73857 23.8509 5.73857L 24.7458 5.73857L 24.7458 5.31598C 24.7458 4.99448 24.6496 4.73926 24.4574 4.55034C 24.2652 4.3581 23.9818 4.26198 23.6072 4.26198C 23.2791 4.26198 23.004 4.34484 22.7819 4.51057C 22.5599 4.67629 22.4488 4.87681 22.4488 5.11214L 21.5241 5.11214C 21.5241 4.84367 21.6186 4.58514 21.8075 4.33656C 21.9997 4.08466 22.2583 3.88579 22.5831 3.73995C 22.9112 3.59412 23.2708 3.5212 23.6619 3.5212C 24.2817 3.5212 24.7673 3.67698 25.1186 3.98854C 25.47 4.29678 25.6523 4.72269 25.6655 5.26626L 25.6655 7.74216C 25.6655 8.23602 25.7285 8.62878 25.8544 8.92045L 25.8544 9L 24.8899 9ZM 23.3636 8.29899C 23.652 8.29899 23.9254 8.22442 24.184 8.07527C 24.4425 7.92612 24.6297 7.73222 24.7458 7.49358L 24.7458 6.38986L 24.0249 6.38986C 22.8979 6.38986 22.3345 6.71965 22.3345 7.37923C 22.3345 7.66759 22.4306 7.89297 22.6228 8.05538C 22.8151 8.21779 23.062 8.29899 23.3636 8.29899ZM 28.7977 7.65267L 30.0505 3.62063L 31.0349 3.62063L 28.8723 9.83027C 28.5375 10.7252 28.0055 11.1726 27.2763 11.1726L 27.1023 11.1577L 26.7593 11.0931L 26.7593 10.3473L 27.0079 10.3672C 27.3194 10.3672 27.5614 10.3042 27.7337 10.1783C 27.9094 10.0523 28.0536 9.82199 28.1663 9.48723L 28.3701 8.94034L 26.451 3.62063L 27.4553 3.62063L 28.7977 7.65267Z"/>
<path id="path2_fill" fill-rule="evenodd" d="M 5.95003 3.35489C 5.74023 1.36109 9.41163 1.37212 12.3033 0.783979C 15.5848 0.116525 18.3459 -0.394625 18.3459 0.41611L 18.3459 5.80386L 18.333 16.0896C 18.3416 16.5109 18.3459 16.9979 18.3459 17.559C 18.3459 19.7486 16.4077 21.1367 14.3792 20.9875C 12.4304 20.9875 11.4042 19.9167 11.4042 18.2937C 11.4042 16.3259 14.1053 15.109 16.3626 15.11C 16.7486 15.1102 17.0795 14.7117 17.3542 14.3303L 17.3542 6.24003C 16.7539 5.56343 14.9315 5.86588 12.9441 6.30436C 10.9492 6.7445 8.36476 7.19102 6.9417 7.98313L 6.9417 18.5386C 6.93739 18.9599 6.9417 19.4469 6.9417 20.0079C 6.9417 22.1976 5.00352 23.5857 2.97501 23.4365C 1.02618 23.4365 0 22.3657 0 20.7426C 0 18.7748 2.70112 17.558 4.95836 17.559C 5.34439 17.5591 5.67531 17.1606 5.95003 16.7793L 5.95003 6.78346L 5.99898 6.73268C 5.99538 5.32549 5.98382 3.67599 5.95003 3.35489Z"/>
<path id="path3_fill" d="M 2.97307 5.77337C 2.1544 5.53805 1.5578 5.24969 1.18326 4.9083C 0.812042 4.5636 0.626433 4.13935 0.626433 3.63555C 0.626433 3.06546 0.853473 2.59481 1.30755 2.22359C 1.76495 1.84906 2.35824 1.66179 3.08742 1.66179C 3.58459 1.66179 4.02707 1.75791 4.41486 1.95015C 4.80597 2.14238 5.10758 2.40754 5.31971 2.74562C 5.53515 3.08369 5.64287 3.45325 5.64287 3.8543L 4.68333 3.8543C 4.68333 3.41679 4.54412 3.07375 4.26571 2.82516C 3.98729 2.57326 3.59453 2.44732 3.08742 2.44732C 2.61677 2.44732 2.24886 2.55172 1.9837 2.76053C 1.72186 2.96603 1.59094 3.25273 1.59094 3.62063C 1.59094 3.91562 1.71523 4.16586 1.96382 4.37136C 2.21572 4.57354 2.64162 4.75915 3.24154 4.92819C 3.84477 5.09722 4.31543 5.28449 4.6535 5.48999C 4.99489 5.69217 5.24679 5.92915 5.4092 6.20094C 5.57492 6.47273 5.65778 6.79257 5.65778 7.16048C 5.65778 7.74713 5.42908 8.21779 4.97169 8.57243C 4.51429 8.92377 3.90278 9.09943 3.13714 9.09943C 2.63997 9.09943 2.17594 9.00497 1.74506 8.81605C 1.31418 8.62381 0.98108 8.36197 0.745753 8.03052C 0.513741 7.69907 0.397735 7.32288 0.397735 6.90195L 1.35727 6.90195C 1.35727 7.33946 1.51802 7.68582 1.83952 7.94103C 2.16434 8.19293 2.59688 8.31888 3.13714 8.31888C 3.64093 8.31888 4.02707 8.21613 4.29554 8.01063C 4.56401 7.80514 4.69825 7.52507 4.69825 7.17042C 4.69825 6.81577 4.57395 6.54233 4.32537 6.35009C 4.07678 6.15454 3.62602 5.9623 2.97307 5.77337ZM 8.9739 9.09943C 8.24472 9.09943 7.65143 8.86079 7.19403 8.38351C 6.73664 7.90291 6.50794 7.26157 6.50794 6.45947L 6.50794 6.29043C 6.50794 5.7568 6.60903 5.28118 6.81121 4.86356C 7.01671 4.44262 7.30175 4.11449 7.66634 3.87916C 8.03425 3.64052 8.43198 3.5212 8.85955 3.5212C 9.5589 3.5212 10.1025 3.75155 10.4903 4.21226C 10.8781 4.67297 11.0719 5.33255 11.0719 6.191L 11.0719 6.57382L 7.4277 6.57382C 7.44096 7.10413 7.59508 7.53335 7.89007 7.86148C 8.18837 8.1863 8.56622 8.34871 9.02361 8.34871C 9.34843 8.34871 9.62353 8.28242 9.84891 8.14984C 10.0743 8.01726 10.2715 7.8416 10.4405 7.62284L 11.0023 8.06035C 10.5516 8.75307 9.87543 9.09943 8.9739 9.09943ZM 8.85955 4.2769C 8.48833 4.2769 8.17677 4.41279 7.92487 4.68457C 7.67297 4.95305 7.51719 5.33089 7.45753 5.81812L 10.1522 5.81812L 10.1522 5.74852C 10.1257 5.28118 9.99972 4.9199 9.77434 4.66469C 9.54896 4.40616 9.24403 4.2769 8.85955 4.2769ZM 13.3888 2.31805L 13.3888 3.62063L 14.393 3.62063L 14.393 4.33158L 13.3888 4.33158L 13.3888 7.66759C 13.3888 7.88303 13.4335 8.04544 13.523 8.15481C 13.6125 8.26088 13.7649 8.31391 13.9804 8.31391C 14.0864 8.31391 14.2323 8.29402 14.4179 8.25425L 14.4179 9C 14.1759 9.06629 13.9406 9.09943 13.7119 9.09943C 13.3009 9.09943 12.991 8.97514 12.7822 8.72656C 12.5734 8.47797 12.469 8.12498 12.469 7.66759L 12.469 4.33158L 11.4896 4.33158L 11.4896 3.62063L 12.469 3.62063L 12.469 2.31805L 13.3888 2.31805ZM 16.7198 2.31805L 16.7198 3.62063L 17.7241 3.62063L 17.7241 4.33158L 16.7198 4.33158L 16.7198 7.66759C 16.7198 7.88303 16.7645 8.04544 16.854 8.15481C 16.9435 8.26088 17.096 8.31391 17.3114 8.31391C 17.4175 8.31391 17.5633 8.29402 17.7489 8.25425L 17.7489 9C 17.507 9.06629 17.2716 9.09943 17.0429 9.09943C 16.632 9.09943 16.3221 8.97514 16.1132 8.72656C 15.9044 8.47797 15.8 8.12498 15.8 7.66759L 15.8 4.33158L 14.8206 4.33158L 14.8206 3.62063L 15.8 3.62063L 15.8 2.31805L 16.7198 2.31805ZM 19.8022 9L 18.8825 9L 18.8825 3.62063L 19.8022 3.62063L 19.8022 9ZM 18.8079 2.19376C 18.8079 2.04461 18.8526 1.91866 18.9421 1.81591C 19.0349 1.71316 19.1708 1.66179 19.3498 1.66179C 19.5288 1.66179 19.6647 1.71316 19.7575 1.81591C 19.8503 1.91866 19.8967 2.04461 19.8967 2.19376C 19.8967 2.34291 19.8503 2.4672 19.7575 2.56664C 19.6647 2.66607 19.5288 2.71579 19.3498 2.71579C 19.1708 2.71579 19.0349 2.66607 18.9421 2.56664C 18.8526 2.4672 18.8079 2.34291 18.8079 2.19376ZM 22.1489 3.62063L 22.1787 4.29678C 22.5897 3.77973 23.1266 3.5212 23.7895 3.5212C 24.9264 3.5212 25.4998 4.16255 25.5097 5.44524L 25.5097 9L 24.59 9L 24.59 5.44027C 24.5867 5.05248 24.4972 4.76578 24.3215 4.58017C 24.1491 4.39456 23.879 4.30175 23.5111 4.30175C 23.2128 4.30175 22.951 4.3813 22.7256 4.5404C 22.5002 4.69949 22.3245 4.9083 22.1986 5.16683L 22.1986 9L 21.2788 9L 21.2788 3.62063L 22.1489 3.62063ZM 26.6781 6.26557C 26.6781 5.42701 26.872 4.76081 27.2598 4.26695C 27.6476 3.76978 28.1613 3.5212 28.801 3.5212C 29.4573 3.5212 29.9693 3.75321 30.3372 4.21724L 30.382 3.62063L 31.2222 3.62063L 31.2222 8.87074C 31.2222 9.56677 31.015 10.1153 30.6007 10.5164C 30.1897 10.9174 29.6362 11.1179 28.9402 11.1179C 28.5524 11.1179 28.1729 11.0351 27.8017 10.8694C 27.4305 10.7036 27.1471 10.4766 26.9515 10.1882L 27.4288 9.63638C 27.8232 10.1236 28.3055 10.3672 28.8756 10.3672C 29.323 10.3672 29.671 10.2413 29.9196 9.98937C 30.1715 9.73747 30.2975 9.38282 30.2975 8.92542L 30.2975 8.46306C 29.9296 8.88731 29.4274 9.09943 28.791 9.09943C 28.1613 9.09943 27.6509 8.84588 27.2598 8.33877C 26.872 7.83165 26.6781 7.14059 26.6781 6.26557ZM 27.6028 6.36998C 27.6028 6.97652 27.7271 7.4538 27.9757 7.80182C 28.2243 8.14653 28.5723 8.31888 29.0197 8.31888C 29.5998 8.31888 30.0257 8.05538 30.2975 7.52838L 30.2975 5.07237C 30.0157 4.55863 29.5931 4.30175 29.0297 4.30175C 28.5822 4.30175 28.2326 4.47576 27.9807 4.82378C 27.7288 5.1718 27.6028 5.6872 27.6028 6.36998ZM 35.7464 7.57313C 35.7464 7.32454 35.652 7.1323 35.4631 6.99641C 35.2774 6.8572 34.951 6.73788 34.4836 6.63845C 34.0196 6.53901 33.65 6.41969 33.3749 6.28049C 33.1032 6.14128 32.901 5.97556 32.7684 5.78332C 32.6391 5.59108 32.5745 5.36238 32.5745 5.09722C 32.5745 4.6564 32.7601 4.28353 33.1313 3.97859C 33.5059 3.67366 33.9831 3.5212 34.5632 3.5212C 35.173 3.5212 35.6669 3.67864 36.0447 3.99351C 36.4259 4.30838 36.6165 4.71109 36.6165 5.20163L 35.6917 5.20163C 35.6917 4.94973 35.584 4.73263 35.3686 4.55034C 35.1565 4.36804 34.888 4.2769 34.5632 4.2769C 34.2284 4.2769 33.9666 4.34981 33.7776 4.49565C 33.5887 4.64149 33.4943 4.83207 33.4943 5.06739C 33.4943 5.28946 33.5821 5.45684 33.7578 5.56954C 33.9334 5.68223 34.25 5.78995 34.7074 5.89269C 35.1681 5.99544 35.5409 6.11808 35.826 6.2606C 36.111 6.40312 36.3215 6.57547 36.4574 6.77766C 36.5966 6.97652 36.6662 7.22014 36.6662 7.50849C 36.6662 7.98909 36.474 8.37522 36.0895 8.6669C 35.705 8.95525 35.2062 9.09943 34.593 9.09943C 34.1621 9.09943 33.781 9.0232 33.4495 8.87074C 33.1181 8.71827 32.8579 8.50615 32.669 8.23436C 32.4834 7.95926 32.3905 7.66262 32.3905 7.34443L 33.3103 7.34443C 33.3269 7.65267 33.4495 7.89794 33.6782 8.08024C 33.9102 8.25922 34.2152 8.34871 34.593 8.34871C 34.941 8.34871 35.2194 8.27911 35.4282 8.1399C 35.6404 7.99738 35.7464 7.80845 35.7464 7.57313Z"/>
<path id="path4_fill" d="M 12.44 23L 9.96 23L 8.76 19.9055C 8.2 19.7382 7.64 19.4455 7.16 19.1527L 4.32 20.3655L 2.56 18.5255L 3.72 15.5564C 3.44 15.0127 3.12 14.4691 2.96 13.8418L 0 12.5873L 0 9.99455L 2.96 8.74C 3.12 8.15455 3.4 7.56909 3.68 7.06727L 2.52 4.09818L 4.28 2.25818L 7.12 3.47091C 7.64 3.17818 8.16 3.05273 8.76 2.88545L 9.96 2.97136e-15L 12.44 2.97136e-15L 13.64 2.88545C 14.2 3.05273 14.76 3.26182 15.24 3.51273L 18.08 2.25818L 19.84 4.09818L 18.68 7.06727C 18.96 7.61091 19.08 8.15455 19.24 8.74L 22 9.99455L 22 12.5873L 19.24 13.8418C 19.08 14.4273 18.88 15.0127 18.64 15.5145L 19.84 18.4836L 18.08 20.3236L 15.24 19.1109C 14.72 19.4036 14.2 19.7382 13.64 19.9055L 12.44 23ZM 10.24 22.5818L 12.2 22.5818L 13.36 19.5709L 13.44 19.4873C 14.04 19.32 14.6 19.0273 15.16 18.7345L 15.24 18.6927L 18.04 19.9055L 19.4 18.4418L 18.24 15.5145L 18.28 15.4309C 18.56 14.8873 18.8 14.26 19 13.6327L 18.92 13.5491L 21.6 12.3364L 21.6 10.2873L 18.92 9.07455L 18.96 8.99091C 18.8 8.36364 18.56 7.77818 18.28 7.19273L 18.24 7.10909L 19.4 4.18182L 18 2.71818L 15.2 3.93091L 15.12 3.88909C 14.6 3.59636 14 3.34545 13.4 3.13636L 13.32 3.22L 12.16 0.418182L 10.2 0.418182L 9.04 3.22L 8.96 3.17818C 8.36 3.34545 7.8 3.59636 7.24 3.88909L 7.16 3.93091L 4.36 2.71818L 3 4.18182L 4.16 7.10909L 4.12 7.19273C 3.84 7.73636 3.6 8.36364 3.4 8.99091L 3.28 9.07455L 0.4 10.2873L 0.4 12.3364L 3.28 13.5491L 3.36 13.6327C 3.52 14.26 3.8 14.8873 4.08 15.4309L 4.12 15.5145L 2.96 18.4418L 4.36 19.8636L 7.16 18.6509L 7.24 18.6927C 7.76 18.9855 8.36 19.2364 8.96 19.4455L 9.04 19.5709L 10.24 22.5818ZM 11.2 14.9709C 10.16 14.9709 9.16 14.4691 8.48 13.6327C 7.8 12.7964 7.52 11.6673 7.72 10.58C 8 9.11636 9.08 7.94546 10.48 7.69455C 11.76 7.44364 13.08 7.94546 13.88 8.94909C 14.56 9.78545 14.84 10.9145 14.64 12.0018C 14.36 13.4655 13.28 14.6364 11.88 14.8873C 11.68 14.9709 11.44 14.9709 11.2 14.9709ZM 11.2 8.02909C 11 8.02909 10.8 8.02909 10.6 8.07091C 9.36 8.32182 8.4 9.32546 8.16 10.6218C 8 11.5836 8.24 12.5873 8.8 13.34C 9.52 14.26 10.68 14.6782 11.84 14.4691C 13.08 14.2182 14.04 13.2145 14.28 11.9182C 14.44 10.9564 14.2 9.95273 13.64 9.2C 13 8.44727 12.12 8.02909 11.2 8.02909Z"/>
<path id="path5_stroke_2x" d="M 12.44 23L 12.44 23.2L 12.577 23.2L 12.6265 23.0723L 12.44 23ZM 9.96 23L 9.77353 23.0723L 9.82305 23.2L 9.96 23.2L 9.96 23ZM 8.76 19.9055L 8.94647 19.8331L 8.91107 19.7418L 8.81724 19.7138L 8.76 19.9055ZM 7.16 19.1527L 7.26413 18.982L 7.17619 18.9283L 7.08146 18.9688L 7.16 19.1527ZM 4.32 20.3655L 4.17547 20.5037L 4.27119 20.6038L 4.39854 20.5494L 4.32 20.3655ZM 2.56 18.5255L 2.37371 18.4527L 2.32729 18.5715L 2.41547 18.6637L 2.56 18.5255ZM 3.72 15.5564L 3.90629 15.6291L 3.93914 15.5451L 3.8978 15.4648L 3.72 15.5564ZM 2.96 13.8418L 3.15379 13.7924L 3.1293 13.6964L 3.03805 13.6577L 2.96 13.8418ZM 0 12.5873L -0.2 12.5873L -0.2 12.7197L -0.0780461 12.7714L 0 12.5873ZM 0 9.99455L -0.0780461 9.8104L -0.2 9.86209L -0.2 9.99455L 0 9.99455ZM 2.96 8.74L 3.03805 8.92414L 3.12735 8.88629L 3.15293 8.79273L 2.96 8.74ZM 3.68 7.06727L 3.85465 7.16472L 3.90061 7.08235L 3.86629 6.99449L 3.68 7.06727ZM 2.52 4.09818L 2.37547 3.95994L 2.28729 4.05213L 2.33371 4.17096L 2.52 4.09818ZM 4.28 2.25818L 4.35854 2.07425L 4.23119 2.01987L 4.13547 2.11994L 4.28 2.25818ZM 7.12 3.47091L 7.04146 3.65484L 7.13216 3.69357L 7.21811 3.64519L 7.12 3.47091ZM 8.76 2.88545L 8.81371 3.07811L 8.90734 3.052L 8.94467 2.96225L 8.76 2.88545ZM 9.96 2.97136e-15L 9.96 -0.2L 9.82657 -0.2L 9.77533 -0.0767991L 9.96 2.97136e-15ZM 12.44 2.97136e-15L 12.6247 -0.0767991L 12.5734 -0.2L 12.44 -0.2L 12.44 2.97136e-15ZM 13.64 2.88545L 13.4553 2.96225L 13.4918 3.04992L 13.5828 3.07709L 13.64 2.88545ZM 15.24 3.51273L 15.1473 3.68997L 15.2327 3.73459L 15.3208 3.69567L 15.24 3.51273ZM 18.08 2.25818L 18.2245 2.11994L 18.1275 2.01854L 17.9992 2.07524L 18.08 2.25818ZM 19.84 4.09818L 20.0263 4.17096L 20.0727 4.05213L 19.9845 3.95994L 19.84 4.09818ZM 18.68 7.06727L 18.4937 6.99449L 18.4609 7.07859L 18.5022 7.15885L 18.68 7.06727ZM 19.24 8.74L 19.0471 8.79273L 19.0718 8.88324L 19.1572 8.92207L 19.24 8.74ZM 22 9.99455L 22.2 9.99455L 22.2 9.86576L 22.0828 9.81247L 22 9.99455ZM 22 12.5873L 22.0828 12.7693L 22.2 12.7161L 22.2 12.5873L 22 12.5873ZM 19.24 13.8418L 19.1572 13.6597L 19.0718 13.6986L 19.0471 13.7891L 19.24 13.8418ZM 18.64 15.5145L 18.4596 15.4283L 18.4215 15.5078L 18.4546 15.5895L 18.64 15.5145ZM 19.84 18.4836L 19.9845 18.6219L 20.0738 18.5285L 20.0254 18.4087L 19.84 18.4836ZM 18.08 20.3236L 18.0015 20.5076L 18.1288 20.5619L 18.2245 20.4619L 18.08 20.3236ZM 15.24 19.1109L 15.3185 18.927L 15.2278 18.8882L 15.1419 18.9366L 15.24 19.1109ZM 13.64 19.9055L 13.5828 19.7138L 13.4889 19.7418L 13.4535 19.8331L 13.64 19.9055ZM 10.24 22.5818L 10.0542 22.6559L 10.1044 22.7818L 10.24 22.7818L 10.24 22.5818ZM 12.2 22.5818L 12.2 22.7818L 12.3373 22.7818L 12.3866 22.6537L 12.2 22.5818ZM 13.36 19.5709L 13.2155 19.4327L 13.1878 19.4616L 13.1734 19.499L 13.36 19.5709ZM 13.44 19.4873L 13.3863 19.2946L 13.3334 19.3094L 13.2955 19.349L 13.44 19.4873ZM 15.16 18.7345L 15.2527 18.9118L 15.2527 18.9118L 15.16 18.7345ZM 15.24 18.6927L 15.3195 18.5092L 15.2319 18.4713L 15.1473 18.5155L 15.24 18.6927ZM 18.04 19.9055L 17.9605 20.089L 18.0903 20.1452L 18.1865 20.0416L 18.04 19.9055ZM 19.4 18.4418L 19.5465 18.578L 19.6324 18.4855L 19.5859 18.3681L 19.4 18.4418ZM 18.24 15.5145L 18.0596 15.4283L 18.0219 15.507L 18.0541 15.5882L 18.24 15.5145ZM 18.28 15.4309L 18.1021 15.3393L 18.0996 15.3446L 18.28 15.4309ZM 19 13.6327L 19.1905 13.6935L 19.2266 13.5803L 19.1445 13.4945L 19 13.6327ZM 18.92 13.5491L 18.8375 13.3669L 18.5803 13.4833L 18.7755 13.6873L 18.92 13.5491ZM 21.6 12.3364L 21.6825 12.5186L 21.8 12.4654L 21.8 12.3364L 21.6 12.3364ZM 21.6 10.2873L 21.8 10.2873L 21.8 10.1583L 21.6825 10.1051L 21.6 10.2873ZM 18.92 9.07455L 18.7396 8.98826L 18.6514 9.17254L 18.8375 9.25676L 18.92 9.07455ZM 18.96 8.99091L 19.1404 9.0772L 19.1717 9.01176L 19.1538 8.94148L 18.96 8.99091ZM 18.28 7.19273L 18.0996 7.27902L 18.0996 7.27902L 18.28 7.19273ZM 18.24 7.10909L 18.0541 7.03541L 18.0219 7.1166L 18.0596 7.19538L 18.24 7.10909ZM 19.4 4.18182L 19.5859 4.2555L 19.6332 4.13626L 19.5445 4.04357L 19.4 4.18182ZM 18 2.71818L 18.1445 2.57994L 18.0483 2.47932L 17.9205 2.53466L 18 2.71818ZM 15.2 3.93091L 15.1073 4.10815L 15.1919 4.15236L 15.2795 4.11444L 15.2 3.93091ZM 15.12 3.88909L 15.0218 4.06346L 15.0273 4.06633L 15.12 3.88909ZM 13.4 3.13636L 13.4658 2.9475L 13.3444 2.90518L 13.2555 2.99812L 13.4 3.13636ZM 13.32 3.22L 13.1352 3.29651L 13.2525 3.57988L 13.4645 3.35824L 13.32 3.22ZM 12.16 0.418182L 12.3448 0.341676L 12.2937 0.218182L 12.16 0.218182L 12.16 0.418182ZM 10.2 0.418182L 10.2 0.218182L 10.0663 0.218182L 10.0152 0.341676L 10.2 0.418182ZM 9.04 3.22L 8.94735 3.39724L 9.14114 3.49855L 9.22479 3.29651L 9.04 3.22ZM 8.96 3.17818L 9.05265 3.00094L 8.98252 2.96428L 8.90629 2.98553L 8.96 3.17818ZM 7.24 3.88909L 7.14735 3.71185L 7.14735 3.71185L 7.24 3.88909ZM 7.16 3.93091L 7.08051 4.11444L 7.16808 4.15236L 7.25265 4.10815L 7.16 3.93091ZM 4.36 2.71818L 4.43949 2.53466L 4.30974 2.47846L 4.21349 2.58204L 4.36 2.71818ZM 3 4.18182L 2.85349 4.04568L 2.76756 4.13815L 2.81407 4.2555L 3 4.18182ZM 4.16 7.10909L 4.34043 7.19538L 4.37811 7.1166L 4.34593 7.03541L 4.16 7.10909ZM 4.12 7.19273L 4.29788 7.28434L 4.30043 7.27902L 4.12 7.19273ZM 3.4 8.99091L 3.51436 9.15499L 3.56996 9.11624L 3.59055 9.05166L 3.4 8.99091ZM 3.28 9.07455L 3.35762 9.25887L 3.37706 9.25069L 3.39436 9.23863L 3.28 9.07455ZM 0.4 10.2873L 0.322383 10.1029L 0.2 10.1545L 0.2 10.2873L 0.4 10.2873ZM 0.4 12.3364L 0.2 12.3364L 0.2 12.4692L 0.322383 12.5207L 0.4 12.3364ZM 3.28 13.5491L 3.42453 13.4108L 3.39585 13.3809L 3.35762 13.3648L 3.28 13.5491ZM 3.36 13.6327L 3.55379 13.5833L 3.54082 13.5324L 3.50453 13.4945L 3.36 13.6327ZM 4.08 15.4309L 4.26051 15.3446L 4.2578 15.3393L 4.08 15.4309ZM 4.12 15.5145L 4.30593 15.5882L 4.33811 15.507L 4.30043 15.4283L 4.12 15.5145ZM 2.96 18.4418L 2.77407 18.3681L 2.72606 18.4893L 2.81749 18.5821L 2.96 18.4418ZM 4.36 19.8636L 4.21749 20.004L 4.31368 20.1017L 4.43949 20.0472L 4.36 19.8636ZM 7.16 18.6509L 7.25265 18.4737L 7.16808 18.4295L 7.08051 18.4674L 7.16 18.6509ZM 7.24 18.6927L 7.33816 18.5184L 7.33265 18.5155L 7.24 18.6927ZM 8.96 19.4455L 9.12863 19.3379L 9.09133 19.2794L 9.02582 19.2566L 8.96 19.4455ZM 9.04 19.5709L 9.22579 19.4969L 9.21879 19.4793L 9.20863 19.4634L 9.04 19.5709ZM 7.72 10.58L 7.52356 10.5424L 7.5233 10.5438L 7.72 10.58ZM 10.48 7.69455L 10.5153 7.89144L 10.5185 7.89081L 10.48 7.69455ZM 13.88 8.94909L 13.7236 9.07376L 13.7248 9.07526L 13.88 8.94909ZM 14.64 12.0018L 14.8364 12.0394L 14.8367 12.038L 14.64 12.0018ZM 11.88 14.8873L 11.8447 14.6904L 11.8231 14.6943L 11.8028 14.7028L 11.88 14.8873ZM 10.6 8.07091L 10.6397 8.26694L 10.6409 8.26667L 10.6 8.07091ZM 8.16 10.6218L 7.96331 10.5854L 7.96271 10.589L 8.16 10.6218ZM 8.8 13.34L 8.63949 13.4594L 8.6425 13.4633L 8.8 13.34ZM 11.84 14.4691L 11.8755 14.666L 11.8797 14.6651L 11.84 14.4691ZM 14.28 11.9182L 14.4767 11.9546L 14.4773 11.951L 14.28 11.9182ZM 13.64 9.2L 13.8008 9.08037L 13.7924 9.07045L 13.64 9.2ZM 12.44 22.8L 9.96 22.8L 9.96 23.2L 12.44 23.2L 12.44 22.8ZM 10.1465 22.9277L 8.94647 19.8331L 8.57353 19.9778L 9.77353 23.0723L 10.1465 22.9277ZM 8.81724 19.7138C 8.27529 19.5529 7.73845 19.2714 7.26413 18.982L 7.05587 19.3235C 7.54156 19.6195 8.12471 19.9235 8.70276 20.0971L 8.81724 19.7138ZM 7.08146 18.9688L 4.24146 20.1815L 4.39854 20.5494L 7.23854 19.3367L 7.08146 18.9688ZM 4.46453 20.2272L 2.70453 18.3872L 2.41547 18.6637L 4.17547 20.5037L 4.46453 20.2272ZM 2.74629 18.5982L 3.90629 15.6291L 3.53371 15.4836L 2.37371 18.4527L 2.74629 18.5982ZM 3.8978 15.4648C 3.61515 14.9162 3.30491 14.3929 3.15379 13.7924L 2.7662 13.8912C 2.93509 14.5453 3.26485 15.1093 3.5422 15.6479L 3.8978 15.4648ZM 3.03805 13.6577L 0.0780461 12.4031L -0.0780461 12.7714L 2.88195 14.026L 3.03805 13.6577ZM 0.2 12.5873L 0.2 9.99455L -0.2 9.99455L -0.2 12.5873L 0.2 12.5873ZM 0.0780461 10.1787L 3.03805 8.92414L 2.88195 8.55586L -0.0780461 9.8104L 0.0780461 10.1787ZM 3.15293 8.79273C 3.30743 8.22433 3.57763 7.66101 3.85465 7.16472L 3.50535 6.96982C 3.22237 7.47718 2.93257 8.08476 2.76707 8.68728L 3.15293 8.79273ZM 3.86629 6.99449L 2.70629 4.0254L 2.33371 4.17096L 3.49371 7.14005L 3.86629 6.99449ZM 2.66453 4.23643L 4.42453 2.39643L 4.13547 2.11994L 2.37547 3.95994L 2.66453 4.23643ZM 4.20146 2.44211L 7.04146 3.65484L 7.19854 3.28698L 4.35854 2.07425L 4.20146 2.44211ZM 7.21811 3.64519C 7.7132 3.3643 8.21032 3.24629 8.81371 3.07811L 8.70629 2.6928C 8.10968 2.85916 7.5668 2.99206 7.02189 3.29663L 7.21811 3.64519ZM 8.94467 2.96225L 10.1447 0.0767991L 9.77533 -0.0767991L 8.57533 2.80866L 8.94467 2.96225ZM 9.96 0.2L 12.44 0.2L 12.44 -0.2L 9.96 -0.2L 9.96 0.2ZM 12.2553 0.0767991L 13.4553 2.96225L 13.8247 2.80866L 12.6247 -0.0767991L 12.2553 0.0767991ZM 13.5828 3.07709C 14.1364 3.24233 14.6785 3.44448 15.1473 3.68997L 15.3327 3.33548C 14.8415 3.07916 14.2636 2.86312 13.6972 2.69382L 13.5828 3.07709ZM 15.3208 3.69567L 18.1608 2.44113L 17.9992 2.07524L 15.1592 3.32978L 15.3208 3.69567ZM 17.9355 2.39643L 19.6955 4.23643L 19.9845 3.95994L 18.2245 2.11994L 17.9355 2.39643ZM 19.6537 4.0254L 18.4937 6.99449L 18.8663 7.14005L 20.0263 4.17096L 19.6537 4.0254ZM 18.5022 7.15885C 18.7719 7.67882 18.8858 8.20248 19.0471 8.79273L 19.4329 8.68728C 19.2742 8.10661 19.1481 7.543 18.8578 6.9757L 18.5022 7.15885ZM 19.1572 8.92207L 21.9172 10.1766L 22.0828 9.81247L 19.3228 8.55793L 19.1572 8.92207ZM 21.8 9.99455L 21.8 12.5873L 22.2 12.5873L 22.2 9.99455L 21.8 9.99455ZM 21.9172 12.4052L 19.1572 13.6597L 19.3228 14.0239L 22.0828 12.7693L 21.9172 12.4052ZM 19.0471 13.7891C 18.8888 14.3686 18.6948 14.9371 18.4596 15.4283L 18.8204 15.6008C 19.0652 15.0883 19.2712 14.486 19.4329 13.8945L 19.0471 13.7891ZM 18.4546 15.5895L 19.6546 18.5586L 20.0254 18.4087L 18.8254 15.4396L 18.4546 15.5895ZM 19.6955 18.3454L 17.9355 20.1854L 18.2245 20.4619L 19.9845 18.6219L 19.6955 18.3454ZM 18.1585 20.1397L 15.3185 18.927L 15.1615 19.2948L 18.0015 20.5076L 18.1585 20.1397ZM 15.1419 18.9366C 14.6168 19.2323 14.1164 19.5565 13.5828 19.7138L 13.6972 20.0971C 14.2836 19.9199 14.8232 19.5749 15.3381 19.2852L 15.1419 18.9366ZM 13.4535 19.8331L 12.2535 22.9277L 12.6265 23.0723L 13.8265 19.9778L 13.4535 19.8331ZM 10.24 22.7818L 12.2 22.7818L 12.2 22.3818L 10.24 22.3818L 10.24 22.7818ZM 12.3866 22.6537L 13.5466 19.6428L 13.1734 19.499L 12.0134 22.5099L 12.3866 22.6537ZM 13.5045 19.7092L 13.5845 19.6255L 13.2955 19.349L 13.2155 19.4327L 13.5045 19.7092ZM 13.4937 19.6799C 14.1136 19.506 14.6927 19.2045 15.2527 18.9118L 15.0673 18.5573C 14.5073 18.85 13.9664 19.134 13.3863 19.2946L 13.4937 19.6799ZM 15.2527 18.9118L 15.3327 18.87L 15.1473 18.5155L 15.0673 18.5573L 15.2527 18.9118ZM 15.1605 18.8763L 17.9605 20.089L 18.1195 19.7219L 15.3195 18.5092L 15.1605 18.8763ZM 18.1865 20.0416L 19.5465 18.578L 19.2535 18.3057L 17.8935 19.7693L 18.1865 20.0416ZM 19.5859 18.3681L 18.4259 15.4409L 18.0541 15.5882L 19.2141 18.5155L 19.5859 18.3681ZM 18.4204 15.6008L 18.4604 15.5172L 18.0996 15.3446L 18.0596 15.4283L 18.4204 15.6008ZM 18.4578 15.5225C 18.7426 14.9689 18.9887 14.3261 19.1905 13.6935L 18.8095 13.572C 18.6113 14.1939 18.3774 14.8056 18.1022 15.3393L 18.4578 15.5225ZM 19.1445 13.4945L 19.0645 13.4108L 18.7755 13.6873L 18.8555 13.771L 19.1445 13.4945ZM 19.0025 13.7313L 21.6825 12.5186L 21.5175 12.1542L 18.8375 13.3669L 19.0025 13.7313ZM 21.8 12.3364L 21.8 10.2873L 21.4 10.2873L 21.4 12.3364L 21.8 12.3364ZM 21.6825 10.1051L 19.0025 8.89233L 18.8375 9.25676L 21.5175 10.4695L 21.6825 10.1051ZM 19.1004 9.16084L 19.1404 9.0772L 18.7796 8.90462L 18.7396 8.98826L 19.1004 9.16084ZM 19.1538 8.94148C 18.9899 8.30084 18.7428 7.69707 18.4604 7.10644L 18.0996 7.27902C 18.3772 7.85929 18.6101 8.42644 18.7662 9.04034L 19.1538 8.94148ZM 18.4604 7.10644L 18.4204 7.0228L 18.0596 7.19538L 18.0996 7.27902L 18.4604 7.10644ZM 18.4259 7.18277L 19.5859 4.2555L 19.2141 4.10814L 18.0541 7.03541L 18.4259 7.18277ZM 19.5445 4.04357L 18.1445 2.57994L 17.8555 2.85643L 19.2555 4.32006L 19.5445 4.04357ZM 17.9205 2.53466L 15.1205 3.74738L 15.2795 4.11444L 18.0795 2.90171L 17.9205 2.53466ZM 15.2927 3.75367L 15.2127 3.71185L 15.0273 4.06633L 15.1073 4.10815L 15.2927 3.75367ZM 15.2181 3.71481C 14.6878 3.41666 14.0715 3.15868 13.4658 2.9475L 13.3342 3.32522C 13.9285 3.53223 14.5122 3.77607 15.0219 4.06337L 15.2181 3.71481ZM 13.2555 2.99812L 13.1755 3.08176L 13.4645 3.35824L 13.5445 3.27461L 13.2555 2.99812ZM 13.5048 3.14349L 12.3448 0.341676L 11.9752 0.494687L 13.1352 3.29651L 13.5048 3.14349ZM 12.16 0.218182L 10.2 0.218182L 10.2 0.618182L 12.16 0.618182L 12.16 0.218182ZM 10.0152 0.341676L 8.85521 3.14349L 9.22479 3.29651L 10.3848 0.494687L 10.0152 0.341676ZM 9.13265 3.04276L 9.05265 3.00094L 8.86735 3.35543L 8.94735 3.39724L 9.13265 3.04276ZM 8.90629 2.98553C 8.29207 3.15735 7.71275 3.4164 7.14735 3.71185L 7.33265 4.06634C 7.88725 3.77633 8.42793 3.53356 9.01371 3.37084L 8.90629 2.98553ZM 7.14735 3.71185L 7.06735 3.75367L 7.25265 4.10815L 7.33265 4.06633L 7.14735 3.71185ZM 7.23949 3.74738L 4.43949 2.53466L 4.28051 2.90171L 7.08051 4.11444L 7.23949 3.74738ZM 4.21349 2.58204L 2.85349 4.04568L 3.14651 4.31796L 4.50651 2.85432L 4.21349 2.58204ZM 2.81407 4.2555L 3.97407 7.18277L 4.34593 7.03541L 3.18593 4.10814L 2.81407 4.2555ZM 3.97957 7.0228L 3.93957 7.10644L 4.30043 7.27902L 4.34043 7.19538L 3.97957 7.0228ZM 3.9422 7.10115C 3.65742 7.65472 3.41125 8.2975 3.20945 8.93015L 3.59055 9.05166C 3.78875 8.42978 4.02257 7.81801 4.2978 7.2843L 3.9422 7.10115ZM 3.28564 8.82683L 3.16564 8.91047L 3.39436 9.23863L 3.51436 9.15499L 3.28564 8.82683ZM 3.20238 8.89022L 0.322383 10.1029L 0.477617 10.4716L 3.35762 9.25887L 3.20238 8.89022ZM 0.2 10.2873L 0.2 12.3364L 0.6 12.3364L 0.6 10.2873L 0.2 10.2873ZM 0.322383 12.5207L 3.20238 13.7334L 3.35762 13.3648L 0.477617 12.152L 0.322383 12.5207ZM 3.13547 13.6873L 3.21547 13.771L 3.50453 13.4945L 3.42453 13.4108L 3.13547 13.6873ZM 3.1662 13.6822C 3.3311 14.3257 3.61971 14.9739 3.9022 15.5225L 4.2578 15.3393C 3.98029 14.8007 3.7089 14.1943 3.55379 13.5833L 3.1662 13.6822ZM 3.89957 15.5172L 3.93957 15.6008L 4.30043 15.4283L 4.26043 15.3446L 3.89957 15.5172ZM 3.93407 15.4409L 2.77407 18.3681L 3.14593 18.5155L 4.30593 15.5882L 3.93407 15.4409ZM 2.81749 18.5821L 4.21749 20.004L 4.50251 19.7233L 3.10251 18.3015L 2.81749 18.5821ZM 4.43949 20.0472L 7.23949 18.8344L 7.08051 18.4674L 4.28051 19.6801L 4.43949 20.0472ZM 7.06735 18.8282L 7.14735 18.87L 7.33265 18.5155L 7.25265 18.4737L 7.06735 18.8282ZM 7.14189 18.867C 7.67221 19.1652 8.28848 19.4231 8.89419 19.6343L 9.02582 19.2566C 8.43152 19.0496 7.84778 18.8057 7.33811 18.5184L 7.14189 18.867ZM 8.79137 19.553L 8.87137 19.6784L 9.20863 19.4634L 9.12863 19.3379L 8.79137 19.553ZM 8.85421 19.645L 10.0542 22.6559L 10.4258 22.5078L 9.22579 19.4969L 8.85421 19.645ZM 11.2 14.7709C 10.2246 14.7709 9.28009 14.2998 8.63518 13.5066L 8.32482 13.7589C 9.03991 14.6384 10.0954 15.1709 11.2 15.1709L 11.2 14.7709ZM 8.63518 13.5066C 7.99334 12.7171 7.72694 11.6478 7.9167 10.6162L 7.5233 10.5438C 7.31306 11.6868 7.60667 12.8756 8.32482 13.7589L 8.63518 13.5066ZM 7.91644 10.6176C 8.18295 9.22447 9.20713 8.12586 10.5153 7.89141L 10.4447 7.49768C 8.95288 7.76505 7.81705 9.00826 7.52356 10.5424L 7.91644 10.6176ZM 10.5185 7.89081C 11.724 7.6545 12.9693 8.12746 13.7236 9.07375L 14.0364 8.82443C 13.1907 7.76345 11.796 7.23277 10.4415 7.49828L 10.5185 7.89081ZM 13.7248 9.07526C 14.3667 9.8647 14.6331 10.934 14.4433 11.9656L 14.8367 12.038C 15.0469 10.8951 14.7533 9.70621 14.0352 8.82292L 13.7248 9.07526ZM 14.4436 11.9642C 14.1771 13.3574 13.1529 14.456 11.8447 14.6904L 11.9153 15.0841C 13.4071 14.8168 14.5429 13.5736 14.8364 12.0394L 14.4436 11.9642ZM 11.8028 14.7028C 11.647 14.7679 11.4505 14.7709 11.2 14.7709L 11.2 15.1709C 11.4295 15.1709 11.713 15.1739 11.9572 15.0718L 11.8028 14.7028ZM 11.2 7.82909C 11 7.82909 10.7794 7.83015 10.5591 7.87514L 10.6409 8.26667C 10.8206 8.22803 11 8.22909 11.2 8.22909L 11.2 7.82909ZM 10.5603 7.87488C 9.23599 8.14286 8.21738 9.21324 7.96334 10.5854L 8.35666 10.6582C 8.58262 9.43767 9.48401 8.50078 10.6397 8.26694L 10.5603 7.87488ZM 7.96271 10.589C 7.79404 11.6029 8.04619 12.6618 8.63954 13.4594L 8.96046 13.2206C 8.43381 12.5127 8.20596 11.5643 8.35729 10.6546L 7.96271 10.589ZM 8.6425 13.4633C 9.41035 14.4444 10.646 14.8875 11.8755 14.6659L 11.8045 14.2723C 10.714 14.4688 9.62965 14.0756 8.9575 13.2167L 8.6425 13.4633ZM 11.8797 14.6651C 13.204 14.3971 14.2226 13.3268 14.4767 11.9546L 14.0833 11.8818C 13.8574 13.1023 12.956 14.0392 11.8003 14.2731L 11.8797 14.6651ZM 14.4773 11.951C 14.646 10.9371 14.3938 9.87817 13.8005 9.08062L 13.4795 9.31938C 14.0062 10.0273 14.234 10.9757 14.0827 11.8854L 14.4773 11.951ZM 13.7924 9.07045C 13.1169 8.27606 12.1825 7.82909 11.2 7.82909L 11.2 8.22909C 12.0575 8.22909 12.8831 8.61849 13.4876 9.32955L 13.7924 9.07045Z"/>
<path id="path6_fill" d="M 4.83248 5.8032L 1.79478 5.8032L 1.79478 9L 0.840215 9L 0.840215 1.76122L 5.32468 1.76122L 5.32468 2.54675L 1.79478 2.54675L 1.79478 5.02265L 4.83248 5.02265L 4.83248 5.8032ZM 9.47604 9C 9.42301 8.89394 9.37992 8.70501 9.34677 8.43323C 8.91921 8.87737 8.40878 9.09943 7.81549 9.09943C 7.28518 9.09943 6.84933 8.95028 6.50794 8.65198C 6.16987 8.35037 6.00083 7.9692 6.00083 7.50849C 6.00083 6.94835 6.21295 6.51416 6.6372 6.20591C 7.06477 5.89435 7.66469 5.73857 8.43696 5.73857L 9.33186 5.73857L 9.33186 5.31598C 9.33186 4.99448 9.23574 4.73926 9.0435 4.55034C 8.85126 4.3581 8.56788 4.26198 8.19334 4.26198C 7.86521 4.26198 7.59011 4.34484 7.36804 4.51057C 7.14597 4.67629 7.03494 4.87681 7.03494 5.11214L 6.1102 5.11214C 6.1102 4.84367 6.20467 4.58514 6.39359 4.33656C 6.58583 4.08466 6.84436 3.88579 7.16917 3.73995C 7.49731 3.59412 7.85692 3.5212 8.24803 3.5212C 8.86783 3.5212 9.3534 3.67698 9.70474 3.98854C 10.0561 4.29678 10.2384 4.72269 10.2516 5.26626L 10.2516 7.74216C 10.2516 8.23602 10.3146 8.62878 10.4405 8.92045L 10.4405 9L 9.47604 9ZM 7.94973 8.29899C 8.23809 8.29899 8.51153 8.22442 8.77006 8.07527C 9.02859 7.92612 9.21585 7.73222 9.33186 7.49358L 9.33186 6.38986L 8.61096 6.38986C 7.48405 6.38986 6.92059 6.71965 6.92059 7.37923C 6.92059 7.66759 7.01671 7.89297 7.20895 8.05538C 7.40119 8.21779 7.64811 8.29899 7.94973 8.29899ZM 13.3987 7.75211L 14.7311 3.62063L 15.6708 3.62063L 13.7417 9L 13.0407 9L 11.0918 3.62063L 12.0315 3.62063L 13.3987 7.75211ZM 16.2425 6.2606C 16.2425 5.7336 16.3453 5.25963 16.5507 4.8387C 16.7596 4.41776 17.0479 4.09294 17.4158 3.86425C 17.787 3.63555 18.2096 3.5212 18.6836 3.5212C 19.4161 3.5212 20.0077 3.77476 20.4585 4.28187C 20.9126 4.78898 21.1396 5.46347 21.1396 6.30535L 21.1396 6.36998C 21.1396 6.89366 21.0385 7.36431 20.8363 7.78194C 20.6375 8.19624 20.3508 8.5194 19.9762 8.75142C 19.605 8.98343 19.1775 9.09943 18.6935 9.09943C 17.9644 9.09943 17.3727 8.84588 16.9187 8.33877C 16.4679 7.83165 16.2425 7.16048 16.2425 6.32523L 16.2425 6.2606ZM 17.1672 6.36998C 17.1672 6.96658 17.3048 7.44552 17.5799 7.80679C 17.8583 8.16807 18.2295 8.34871 18.6935 8.34871C 19.1609 8.34871 19.5321 8.16641 19.8072 7.80182C 20.0823 7.43392 20.2199 6.92018 20.2199 6.2606C 20.2199 5.67063 20.079 5.19334 19.7973 4.82875C 19.5188 4.46085 19.1476 4.2769 18.6836 4.2769C 18.2295 4.2769 17.8633 4.45753 17.5849 4.81881C 17.3064 5.18009 17.1672 5.69714 17.1672 6.36998ZM 24.8932 4.44593C 24.754 4.42273 24.6032 4.41113 24.4408 4.41113C 23.8376 4.41113 23.4283 4.668 23.2128 5.18174L 23.2128 9L 22.293 9L 22.293 3.62063L 23.188 3.62063L 23.2029 4.24209C 23.5045 3.7615 23.932 3.5212 24.4856 3.5212C 24.6645 3.5212 24.8004 3.5444 24.8932 3.5908L 24.8932 4.44593ZM 26.7427 9L 25.8229 9L 25.8229 3.62063L 26.7427 3.62063L 26.7427 9ZM 25.7484 2.19376C 25.7484 2.04461 25.7931 1.91866 25.8826 1.81591C 25.9754 1.71316 26.1113 1.66179 26.2903 1.66179C 26.4693 1.66179 26.6052 1.71316 26.698 1.81591C 26.7908 1.91866 26.8372 2.04461 26.8372 2.19376C 26.8372 2.34291 26.7908 2.4672 26.698 2.56664C 26.6052 2.66607 26.4693 2.71579 26.2903 2.71579C 26.1113 2.71579 25.9754 2.66607 25.8826 2.56664C 25.7931 2.4672 25.7484 2.34291 25.7484 2.19376ZM 29.4672 2.31805L 29.4672 3.62063L 30.4715 3.62063L 30.4715 4.33158L 29.4672 4.33158L 29.4672 7.66759C 29.4672 7.88303 29.5119 8.04544 29.6014 8.15481C 29.6909 8.26088 29.8434 8.31391 30.0588 8.31391C 30.1649 8.31391 30.3107 8.29402 30.4963 8.25425L 30.4963 9C 30.2544 9.06629 30.0191 9.09943 29.7904 9.09943C 29.3794 9.09943 29.0695 8.97514 28.8606 8.72656C 28.6518 8.47797 28.5474 8.12498 28.5474 7.66759L 28.5474 4.33158L 27.568 4.33158L 27.568 3.62063L 28.5474 3.62063L 28.5474 2.31805L 29.4672 2.31805ZM 33.7826 9.09943C 33.0534 9.09943 32.4602 8.86079 32.0028 8.38351C 31.5454 7.90291 31.3167 7.26157 31.3167 6.45947L 31.3167 6.29043C 31.3167 5.7568 31.4178 5.28118 31.6199 4.86356C 31.8254 4.44262 32.1105 4.11449 32.4751 3.87916C 32.843 3.64052 33.2407 3.5212 33.6683 3.5212C 34.3676 3.5212 34.9112 3.75155 35.299 4.21226C 35.6868 4.67297 35.8807 5.33255 35.8807 6.191L 35.8807 6.57382L 32.2364 6.57382C 32.2497 7.10413 32.4038 7.53335 32.6988 7.86148C 32.9971 8.1863 33.3749 8.34871 33.8323 8.34871C 34.1572 8.34871 34.4323 8.28242 34.6576 8.14984C 34.883 8.01726 35.0802 7.8416 35.2493 7.62284L 35.8111 8.06035C 35.3603 8.75307 34.6842 9.09943 33.7826 9.09943ZM 33.6683 4.2769C 33.2971 4.2769 32.9855 4.41279 32.7336 4.68457C 32.4817 4.95305 32.3259 5.33089 32.2663 5.81812L 34.9609 5.81812L 34.9609 5.74852C 34.9344 5.28118 34.8084 4.9199 34.5831 4.66469C 34.3577 4.40616 34.0528 4.2769 33.6683 4.2769ZM 40.0818 7.57313C 40.0818 7.32454 39.9873 7.1323 39.7984 6.99641C 39.6128 6.8572 39.2863 6.73788 38.8189 6.63845C 38.3549 6.53901 37.9854 6.41969 37.7103 6.28049C 37.4385 6.14128 37.2363 5.97556 37.1037 5.78332C 36.9744 5.59108 36.9098 5.36238 36.9098 5.09722C 36.9098 4.6564 37.0954 4.28353 37.4666 3.97859C 37.8412 3.67366 38.3185 3.5212 38.8985 3.5212C 39.5084 3.5212 40.0022 3.67864 40.3801 3.99351C 40.7612 4.30838 40.9518 4.71109 40.9518 5.20163L 40.0271 5.20163C 40.0271 4.94973 39.9193 4.73263 39.7039 4.55034C 39.4918 4.36804 39.2233 4.2769 38.8985 4.2769C 38.5637 4.2769 38.3019 4.34981 38.113 4.49565C 37.924 4.64149 37.8296 4.83207 37.8296 5.06739C 37.8296 5.28946 37.9174 5.45684 38.0931 5.56954C 38.2687 5.68223 38.5853 5.78995 39.0427 5.89269C 39.5034 5.99544 39.8763 6.11808 40.1613 6.2606C 40.4463 6.40312 40.6568 6.57547 40.7927 6.77766C 40.9319 6.97652 41.0015 7.22014 41.0015 7.50849C 41.0015 7.98909 40.8093 8.37522 40.4248 8.6669C 40.0403 8.95525 39.5415 9.09943 38.9283 9.09943C 38.4974 9.09943 38.1163 9.0232 37.7848 8.87074C 37.4534 8.71827 37.1932 8.50615 37.0043 8.23436C 36.8187 7.95926 36.7259 7.66262 36.7259 7.34443L 37.6456 7.34443C 37.6622 7.65267 37.7848 7.89794 38.0135 8.08024C 38.2455 8.25922 38.5505 8.34871 38.9283 8.34871C 39.2763 8.34871 39.5548 8.27911 39.7636 8.1399C 39.9757 7.99738 40.0818 7.80845 40.0818 7.57313Z"/>
<path id="path7_stroke" d="M 10.7387 2.64813L 11.2387 2.64813L 11.2387 2.50044L 11.1584 2.37645L 10.7387 2.64813ZM 0.00419253 5.67273L 0.503736 5.69409L 0.504193 5.68342L 0.504193 5.67273L 0.00419253 5.67273ZM 10.7387 19.2L 10.7387 19.7L 10.7387 19.2ZM 21.2251 7.31717L 20.7474 7.16909L 20.7441 7.18077L 21.2251 7.31717ZM 10.7387 2.64813L 10.2387 2.64813L 10.2387 4.34086L 11.1584 2.91981L 10.7387 2.64813ZM 11.1584 2.37645C 10.0383 0.645745 8.06327 -0.5 5.81871 -0.5L 5.81871 0.5C 7.71726 0.5 9.37931 1.46804 10.3189 2.91981L 11.1584 2.37645ZM 5.81871 -0.5C 2.34301 -0.5 -0.495807 2.25206 -0.495807 5.67273L 0.504193 5.67273C 0.504193 2.82747 2.87188 0.5 5.81871 0.5L 5.81871 -0.5ZM -0.495351 5.65136C -0.560629 7.17749 0.067469 8.81586 0.996097 10.3769C 1.92525 11.9361 3.20575 13.4986 4.50607 14.8576C 5.80842 16.2176 7.16527 17.4141 8.25425 18.2597C 8.80214 18.6847 9.30023 19.0345 9.68895 19.2724C 9.88732 19.3934 10.0776 19.4968 10.2277 19.5648C 10.3672 19.6276 10.5548 19.7 10.7387 19.7L 10.7387 18.7C 10.7842 18.7 10.7649 18.71 10.6383 18.653C 10.5223 18.6012 10.3873 18.5274 10.2105 18.4191C 9.84867 18.1983 9.39629 17.8804 8.86741 17.4697C 7.80282 16.6437 6.5009 15.4962 5.22848 14.1661C 3.95405 12.8352 2.74383 11.3617 1.85553 9.8657C 0.966712 8.37154 0.450644 6.93532 0.503736 5.69409L -0.495351 5.65136ZM 10.7387 19.7C 10.9094 19.7 11.0785 19.6382 11.2034 19.5841C 11.335 19.5268 11.5017 19.4389 11.6713 19.3377C 12.0022 19.1396 12.4251 18.8472 12.8904 18.4918C 13.8141 17.7856 14.9765 16.7794 16.1429 15.6156C 18.4593 13.3032 20.9116 10.2557 21.7062 7.45356L 20.7441 7.18077C 20.024 9.72026 17.7341 12.6142 15.4364 14.9078C 14.2956 16.047 13.183 17.0099 12.2833 17.6972C 11.8368 18.0385 11.4609 18.2988 11.1583 18.4793C 11.0111 18.5674 10.9023 18.6253 10.8064 18.6663C 10.7038 18.7107 10.6932 18.7 10.7387 18.7L 10.7387 19.7ZM 21.7027 7.4652C 21.8735 6.90978 21.9717 6.2835 21.9732 5.67273L 20.9732 5.67273C 20.9747 6.20567 20.8994 6.68356 20.7475 7.16913L 21.7027 7.4652ZM 21.9732 5.67273C 21.9732 2.25206 19.1344 -0.5 15.6587 -0.5L 15.6587 0.5C 18.6055 0.5 20.9732 2.82747 20.9732 5.67273L 21.9732 5.67273ZM 15.6587 -0.5C 13.4141 -0.5 11.4391 0.645745 10.3189 2.37645L 11.1584 2.91981C 12.0981 1.46804 13.7601 0.5 15.6587 0.5L 15.6587 -0.5ZM 11.2387 2.64813L 11.2387 2.64813L 10.2387 2.64813L 10.2387 2.64813L 11.2387 2.64813Z"/>
<path id="path8_fill" d="M 10.7387 2.64813C 9.70879 1.05689 7.89026 0 5.81871 0C 2.60744 0 0.00419253 2.53977 0.00419253 5.67273C -0.232547 11.2074 9.631 19.2 10.7387 19.2C 11.7405 19.2 19.7105 12.6588 21.2251 7.31717C 21.3865 6.79667 21.4732 6.24458 21.4732 5.67273C 21.4732 2.53977 18.8699 0 15.6587 0C 13.5871 0 11.7686 1.05689 10.7387 2.64813L 10.7387 2.64813Z"/>
</defs>
</svg>
