<svg width="23" height="22" viewBox="0 0 23 22" version="1.1" xmlns="http://www.w3.org/2000/svg" xmlns:xlink="http://www.w3.org/1999/xlink" xmlns:figma="http://www.figma.com/figma/ns">
<title>Icon</title>
<desc>Created using Figma</desc>
<g id="Canvas" transform="translate(-1256 -91)" figma:type="canvas">
<g id="Icon" style="mix-blend-mode:normal;isolation:isolate;" figma:type="vector">
<use xlink:href="#path0_stroke" transform="translate(1256.79 92.416)" fill="#333333" style="mix-blend-mode:normal;"/>
</g>
</g>
<defs>
<path id="path0_stroke" d="M 10.7387 2.64813L 11.2387 2.64813L 11.2387 2.50044L 11.1584 2.37645L 10.7387 2.64813ZM 0.00419253 5.67273L 0.503736 5.69409L 0.504193 5.68342L 0.504193 5.67273L 0.00419253 5.67273ZM 10.7387 19.2L 10.7387 19.7L 10.7387 19.2ZM 21.2251 7.31717L 20.7474 7.16909L 20.7441 7.18077L 21.2251 7.31717ZM 10.7387 2.64813L 10.2387 2.64813L 10.2387 4.34086L 11.1584 2.91981L 10.7387 2.64813ZM 11.1584 2.37645C 10.0383 0.645745 8.06327 -0.5 5.81871 -0.5L 5.81871 0.5C 7.71726 0.5 9.37931 1.46804 10.3189 2.91981L 11.1584 2.37645ZM 5.81871 -0.5C 2.34301 -0.5 -0.495807 2.25206 -0.495807 5.67273L 0.504193 5.67273C 0.504193 2.82747 2.87188 0.5 5.81871 0.5L 5.81871 -0.5ZM -0.495351 5.65136C -0.560629 7.17749 0.067469 8.81586 0.996097 10.3769C 1.92525 11.9361 3.20575 13.4986 4.50607 14.8576C 5.80842 16.2176 7.16527 17.4141 8.25425 18.2597C 8.80214 18.6847 9.30023 19.0345 9.68895 19.2724C 9.88732 19.3934 10.0776 19.4968 10.2277 19.5648C 10.3672 19.6276 10.5548 19.7 10.7387 19.7L 10.7387 18.7C 10.7842 18.7 10.7649 18.71 10.6383 18.653C 10.5223 18.6012 10.3873 18.5274 10.2105 18.4191C 9.84867 18.1983 9.39629 17.8804 8.86741 17.4697C 7.80282 16.6437 6.5009 15.4962 5.22848 14.1661C 3.95405 12.8352 2.74383 11.3617 1.85553 9.8657C 0.966712 8.37154 0.450644 6.93532 0.503736 5.69409L -0.495351 5.65136ZM 10.7387 19.7C 10.9094 19.7 11.0785 19.6382 11.2034 19.5841C 11.335 19.5268 11.5017 19.4389 11.6713 19.3377C 12.0022 19.1396 12.4251 18.8472 12.8904 18.4918C 13.8141 17.7856 14.9765 16.7794 16.1429 15.6156C 18.4593 13.3032 20.9116 10.2557 21.7062 7.45356L 20.7441 7.18077C 20.024 9.72026 17.7341 12.6142 15.4364 14.9078C 14.2956 16.047 13.183 17.0099 12.2833 17.6972C 11.8368 18.0385 11.4609 18.2988 11.1583 18.4793C 11.0111 18.5674 10.9023 18.6253 10.8064 18.6663C 10.7038 18.7107 10.6932 18.7 10.7387 18.7L 10.7387 19.7ZM 21.7027 7.4652C 21.8735 6.90978 21.9717 6.2835 21.9732 5.67273L 20.9732 5.67273C 20.9747 6.20567 20.8994 6.68356 20.7475 7.16913L 21.7027 7.4652ZM 21.9732 5.67273C 21.9732 2.25206 19.1344 -0.5 15.6587 -0.5L 15.6587 0.5C 18.6055 0.5 20.9732 2.82747 20.9732 5.67273L 21.9732 5.67273ZM 15.6587 -0.5C 13.4141 -0.5 11.4391 0.645745 10.3189 2.37645L 11.1584 2.91981C 12.0981 1.46804 13.7601 0.5 15.6587 0.5L 15.6587 -0.5ZM 11.2387 2.64813L 11.2387 2.64813L 10.2387 2.64813L 10.2387 2.64813L 11.2387 2.64813Z"/>
</defs>
</svg>
