<?xml version="1.0" encoding="UTF-8"?>
<svg width="375px" height="250px" viewBox="0 0 375 250" version="1.1" xmlns="http://www.w3.org/2000/svg" xmlns:xlink="http://www.w3.org/1999/xlink">
    <!-- Generator: Sketch 42 (36781) - http://www.bohemiancoding.com/sketch -->
    <title>Artboard 3</title>
    <desc>Created with Sketch.</desc>
    <defs></defs>
    <g id="Page-1" stroke="none" stroke-width="1" fill="none" fill-rule="evenodd">
        <g id="Artboard-3" fill="#FFFFFF">
            <g id="sunIcon" transform="translate(153.000000, 56.000000)" fill-rule="nonzero">
                <g id="Canvas">
                    <g id="noun_835769_cc">
                        <g id="Group">
                            <g id="Vector" transform="translate(16.000000, 16.000000)">
                                <g id="path0_fill-link" transform="translate(0.940000, 0.957000)">
                                    <path d="M17.0615,-2.59529e-07 C7.68108,-2.59529e-07 -2.59301e-07,7.61981 -2.59301e-07,17.0765 C-2.59301e-07,26.4652 7.68108,34.085 17.0615,34.085 C26.4419,34.085 34.123,26.4652 34.123,17.0765 C34.123,7.68785 26.4419,-2.59529e-07 17.0615,-2.59529e-07 Z M17.0615,33.4047 C8.02095,33.4047 0.747716,26.057 0.747716,17.0765 C0.747716,8.09605 8.08893,0.748374 17.0615,0.748374 C26.0341,0.748374 33.3753,8.09605 33.3753,17.0765 C33.3753,26.057 26.1021,33.4047 17.0615,33.4047 Z" id="path0_fill"></path>
                                </g>
                            </g>
                            <g id="Vector" transform="translate(0.000000, 33.000000)">
                                <g id="path1_fill-link" transform="translate(0.000000, 0.694000)">
                                    <path d="M9.32945,0 L0.356864,0 C-0.118955,0 -0.118955,0.68034 0.356864,0.68034 L9.32945,0.68034 C9.80527,0.68034 9.87325,0 9.32945,0 Z" id="path1_fill"></path>
                                </g>
                            </g>
                            <g id="Vector" transform="translate(58.000000, 33.000000)">
                                <g id="path2_fill-link" transform="translate(0.250000, 0.354000)">
                                    <path d="M9.39743,0 L0.356862,0 C-0.118957,0 -0.118957,0.68034 0.356862,0.68034 L9.32945,0.68034 C9.87325,0.68034 9.87325,0 9.39743,0 Z" id="path2_fill"></path>
                                </g>
                            </g>
                            <g id="Vector" transform="translate(50.000000, 9.000000)">
                                <g id="path3_fill-link" transform="translate(0.700000, 0.561000)">
                                    <path d="M0.565043,6.98846 L6.95462,0.593265 C7.29449,0.253095 6.81866,-0.223143 6.47879,0.117027 L0.157199,6.44419 C-0.250646,6.78436 0.225172,7.32863 0.565043,6.98846 Z" id="path3_fill"></path>
                                </g>
                            </g>
                            <g id="Vector" transform="translate(9.000000, 50.000000)">
                                <g id="path4_fill-link" transform="translate(0.690000, 0.856000)">
                                    <path d="M6.43852,0.118022 L0.116924,6.44518 C-0.222947,6.78535 0.252872,7.2616 0.592743,6.92142 L6.98231,0.526225 C7.25421,0.254089 6.77839,-0.222148 6.43852,0.118022 Z" id="path4_fill"></path>
                                </g>
                            </g>
                            <g id="Vector" transform="translate(9.000000, 10.000000)">
                                <g id="path5_fill-link" transform="translate(0.620000, 0.241000)">
                                    <path d="M6.43852,6.92043 C6.77839,7.2606 7.25421,6.78436 6.91434,6.44419 L0.592743,0.117027 C0.252872,-0.223143 -0.222947,0.253095 0.116924,0.593265 L6.43852,6.92043 Z" id="path5_fill"></path>
                                </g>
                            </g>
                            <g id="Vector" transform="translate(50.000000, 51.000000)">
                                <g id="path6_fill-link" transform="translate(0.810000, 0.402000)">
                                    <path d="M0.592742,0.117025 C0.252871,-0.223145 -0.222946,0.253096 0.116925,0.593266 L6.5065,6.98847 C6.84637,7.32864 7.32218,6.8524 6.98231,6.51223 L0.592742,0.117025 Z" id="path6_fill"></path>
                                </g>
                            </g>
                            <g id="Vector" transform="translate(33.000000, 58.000000)">
                                <g id="path7_fill-link" transform="translate(0.660000, 0.305000)">
                                    <path d="M0,0.357177 L0,9.33767 C0,9.81391 0.679742,9.81391 0.679742,9.33767 L0.679742,0.357177 C0.679742,-0.119062 0,-0.119062 0,0.357177 Z" id="path7_fill"></path>
                                </g>
                            </g>
                            <g id="Vector" transform="translate(33.000000, 0.000000)">
                                <g id="path8_fill-link" transform="translate(0.660000, 0.000000)">
                                    <path d="M0.679742,9.40571 L0.679742,0.357179 C0.679742,-0.11906 0,-0.11906 0,0.357179 L0,9.33767 C0,9.81391 0.679742,9.88194 0.679742,9.40571 Z" id="path8_fill"></path>
                                </g>
                            </g>
                        </g>
                    </g>
                </g>
            </g>
            <text id="enjoy-your-sunny-mor" font-family="SFUIText-Regular, SF UI Text" font-size="17" font-weight="normal">
                <tspan x="81" y="178">enjoy your sunny morning!</tspan>
            </text>
        </g>
    </g>
</svg>