<?xml version="1.0" encoding="UTF-8"?>
<svg width="20px" height="25px" viewBox="0 0 20 25" version="1.1" xmlns="http://www.w3.org/2000/svg" xmlns:xlink="http://www.w3.org/1999/xlink">
    <!-- Generator: Sketch 42 (36781) - http://www.bohemiancoding.com/sketch -->
    <title>Icon</title>
    <desc>Created with Sketch.</desc>
    <defs></defs>
    <g id="Page-1" stroke="none" stroke-width="1" fill="none" fill-rule="evenodd">
        <g id="inactiveUITabBar" transform="translate(-332.000000, -14.000000)" fill-rule="nonzero" fill="#ADADA8">
            <g id="Canvas">
                <g id="UITabBar">
                    <g id="----▶︎-Music">
                        <g id="My-Music">
                            <g id="UITabBar">
                                <g id="Fifth" transform="translate(332.000000, 14.000000)">
                                    <g id="Icon">
                                        <g id="path2_fill-link" transform="translate(0.663000, 0.950000)">
                                            <path d="M5.95003,3.35489 C5.74023,1.36109 9.41163,1.37212 12.3033,0.783979 C15.5848,0.116525 18.3459,-0.394625 18.3459,0.41611 L18.3459,5.80386 L18.333,16.0896 C18.3416,16.5109 18.3459,16.9979 18.3459,17.559 C18.3459,19.7486 16.4077,21.1367 14.3792,20.9875 C12.4304,20.9875 11.4042,19.9167 11.4042,18.2937 C11.4042,16.3259 14.1053,15.109 16.3626,15.11 C16.7486,15.1102 17.0795,14.7117 17.3542,14.3303 L17.3542,6.24003 C16.7539,5.56343 14.9315,5.86588 12.9441,6.30436 C10.9492,6.7445 8.36476,7.19102 6.9417,7.98313 L6.9417,18.5386 C6.93739,18.9599 6.9417,19.4469 6.9417,20.0079 C6.9417,22.1976 5.00352,23.5857 2.97501,23.4365 C1.02618,23.4365 0,22.3657 0,20.7426 C0,18.7748 2.70112,17.558 4.95836,17.559 C5.34439,17.5591 5.67531,17.1606 5.95003,16.7793 L5.95003,6.78346 L5.99898,6.73268 C5.99538,5.32549 5.98382,3.67599 5.95003,3.35489 Z" id="path2_fill"></path>
                                        </g>
                                    </g>
                                </g>
                            </g>
                        </g>
                    </g>
                </g>
            </g>
        </g>
    </g>
</svg>