<svg width="29" height="19" viewBox="0 0 29 19" version="1.1" xmlns="http://www.w3.org/2000/svg" xmlns:xlink="http://www.w3.org/1999/xlink" xmlns:figma="http://www.figma.com/figma/ns">
<title>Next</title>
<desc>Created using Figma</desc>
<g id="Canvas" transform="translate(-1488 -90)" figma:type="canvas">
<g id="Next" style="mix-blend-mode:normal;" figma:type="frame">
<g id="Vector" style="mix-blend-mode:normal;isolation:isolate;" figma:type="vector">
<use xlink:href="#path0_fill" transform="translate(1488.41 90.8134)" style="mix-blend-mode:normal;"/>
</g>
</g>
</g>
<defs>
<path id="path0_fill" d="M 27.61 7.95978C 28.2688 8.37457 28.2699 9.05 27.6162 9.46607L 15.2612 17.33C 14.6059 17.7471 14.0747 17.4541 14.0747 16.676L 14.0747 0.846502C 14.0747 0.0681812 14.6075 -0.227242 15.2674 0.18827L 27.61 7.95978ZM 13.5353 7.95978C 14.1941 8.37457 14.1952 9.05 13.5415 9.46607L 1.18658 17.33C 0.531251 17.7471 1.48208e-05 17.4541 1.48208e-05 16.676L 1.48208e-05 0.846502C 1.48208e-05 0.0681812 0.532868 -0.227242 1.19277 0.18827L 13.5353 7.95978Z"/>
</defs>
</svg>
