<svg width="21" height="26" viewBox="0 0 21 26" version="1.1" xmlns="http://www.w3.org/2000/svg" xmlns:xlink="http://www.w3.org/1999/xlink" xmlns:figma="http://www.figma.com/figma/ns">
<title>Pause</title>
<desc>Created using Figma</desc>
<g id="Canvas" transform="translate(-1409 -87)" figma:type="canvas">
<g id="Pause" style="mix-blend-mode:normal;" figma:type="frame">
<g id="Vector" style="mix-blend-mode:normal;isolation:isolate;" figma:type="vector">
<use xlink:href="#path0_fill" transform="translate(1409.95 87.224)" style="mix-blend-mode:normal;"/>
</g>
</g>
</g>
<defs>
<path id="path0_fill" d="M 0 0.911769C 0 0.408213 0.40878 0 0.905607 0L 6.13173 0C 6.63188 0 7.03733 0.406038 7.03733 0.911769L 7.03733 24.2882C 7.03733 24.7918 6.62855 25.2 6.13173 25.2L 0.905607 25.2C 0.405457 25.2 0 24.794 0 24.2882L 0 0.911769ZM 12.064 0.911769C 12.064 0.408213 12.4728 0 12.9696 0L 18.1957 0C 18.6959 0 19.1013 0.406038 19.1013 0.911769L 19.1013 24.2882C 19.1013 24.7918 18.6926 25.2 18.1957 25.2L 12.9696 25.2C 12.4695 25.2 12.064 24.794 12.064 24.2882L 12.064 0.911769Z"/>
</defs>
</svg>
