<svg width="24px" height="26px" viewBox="0 0 24 26" version="1.1" xmlns="http://www.w3.org/2000/svg" xmlns:xlink="http://www.w3.org/1999/xlink">
    <path d="M13.44,24 L13.44,24.2 L13.577,24.2 L13.6265,24.0723 L13.44,24 Z M10.96,24 L10.77353,24.0723 L10.82305,24.2 L10.96,24.2 L10.96,24 Z M9.76,20.9055 L9.94647,20.8331 L9.91107,20.7418 L9.81724,20.7138 L9.76,20.9055 Z M8.16,20.1527 L8.26413,19.982 L8.17619,19.9283 L8.08146,19.9688 L8.16,20.1527 Z M5.32,21.3655 L5.17547,21.5037 L5.27119,21.6038 L5.39854,21.5494 L5.32,21.3655 Z M3.56,19.5255 L3.37371,19.4527 L3.32729,19.5715 L3.41547,19.6637 L3.56,19.5255 Z M4.72,16.5564 L4.90629,16.6291 L4.93914,16.5451 L4.8978,16.4648 L4.72,16.5564 Z M3.96,14.8418 L4.15379,14.7924 L4.1293,14.6964 L4.03805,14.6577 L3.96,14.8418 Z M1,13.5873 L0.8,13.5873 L0.8,13.7197 L0.9219539,13.7714 L1,13.5873 Z M1,10.99455 L0.9219539,10.8104 L0.8,10.86209 L0.8,10.99455 L1,10.99455 Z M3.96,9.74 L4.03805,9.92414 L4.12735,9.88629 L4.15293,9.79273 L3.96,9.74 Z M4.68,8.06727 L4.85465,8.16472 L4.90061,8.08235 L4.86629,7.99449 L4.68,8.06727 Z M3.52,5.09818 L3.37547,4.95994 L3.28729,5.05213 L3.33371,5.17096 L3.52,5.09818 Z M5.28,3.25818 L5.35854,3.07425 L5.23119,3.01987 L5.13547,3.11994 L5.28,3.25818 Z M8.12,4.47091 L8.04146,4.65484 L8.13216,4.69357 L8.21811,4.64519 L8.12,4.47091 Z M9.76,3.88545 L9.81371,4.07811 L9.90734,4.052 L9.94467,3.96225 L9.76,3.88545 Z M10.96,1 L10.96,0.8 L10.82657,0.8 L10.77533,0.9232009 L10.96,1 Z M13.44,1 L13.6247,0.9232009 L13.5734,0.8 L13.44,0.8 L13.44,1 Z M14.64,3.88545 L14.4553,3.96225 L14.4918,4.04992 L14.5828,4.07709 L14.64,3.88545 Z M16.24,4.51273 L16.1473,4.68997 L16.2327,4.73459 L16.3208,4.69567 L16.24,4.51273 Z M19.08,3.25818 L19.2245,3.11994 L19.1275,3.01854 L18.9992,3.07524 L19.08,3.25818 Z M20.84,5.09818 L21.0263,5.17096 L21.0727,5.05213 L20.9845,4.95994 L20.84,5.09818 Z M19.68,8.06727 L19.4937,7.99449 L19.4609,8.07859 L19.5022,8.15885 L19.68,8.06727 Z M20.24,9.74 L20.0471,9.79273 L20.0718,9.88324 L20.1572,9.92207 L20.24,9.74 Z M23,10.99455 L23.2,10.99455 L23.2,10.86576 L23.0828,10.81247 L23,10.99455 Z M23,13.5873 L23.0828,13.7693 L23.2,13.7161 L23.2,13.5873 L23,13.5873 Z M20.24,14.8418 L20.1572,14.6597 L20.0718,14.6986 L20.0471,14.7891 L20.24,14.8418 Z M19.64,16.5145 L19.4596,16.4283 L19.4215,16.5078 L19.4546,16.5895 L19.64,16.5145 Z M20.84,19.4836 L20.9845,19.6219 L21.0738,19.5285 L21.0254,19.4087 L20.84,19.4836 Z M19.08,21.3236 L19.0015,21.5076 L19.1288,21.5619 L19.2245,21.4619 L19.08,21.3236 Z M16.24,20.1109 L16.3185,19.927 L16.2278,19.8882 L16.1419,19.9366 L16.24,20.1109 Z M14.64,20.9055 L14.5828,20.7138 L14.4889,20.7418 L14.4535,20.8331 L14.64,20.9055 Z M11.24,23.5818 L11.0542,23.6559 L11.1044,23.7818 L11.24,23.7818 L11.24,23.5818 Z M13.2,23.5818 L13.2,23.7818 L13.3373,23.7818 L13.3866,23.6537 L13.2,23.5818 Z M14.36,20.5709 L14.2155,20.4327 L14.1878,20.4616 L14.1734,20.499 L14.36,20.5709 Z M14.44,20.4873 L14.3863,20.2946 L14.3334,20.3094 L14.2955,20.349 L14.44,20.4873 Z M16.16,19.7345 L16.2527,19.9118 L16.2527,19.9118 L16.16,19.7345 Z M16.24,19.6927 L16.3195,19.5092 L16.2319,19.4713 L16.1473,19.5155 L16.24,19.6927 Z M19.04,20.9055 L18.9605,21.089 L19.0903,21.1452 L19.1865,21.0416 L19.04,20.9055 Z M20.4,19.4418 L20.5465,19.578 L20.6324,19.4855 L20.5859,19.3681 L20.4,19.4418 Z M19.24,16.5145 L19.0596,16.4283 L19.0219,16.507 L19.0541,16.5882 L19.24,16.5145 Z M19.28,16.4309 L19.1021,16.3393 L19.0996,16.3446 L19.28,16.4309 Z M20,14.6327 L20.1905,14.6935 L20.2266,14.5803 L20.1445,14.4945 L20,14.6327 Z M19.92,14.5491 L19.8375,14.3669 L19.5803,14.4833 L19.7755,14.6873 L19.92,14.5491 Z M22.6,13.3364 L22.6825,13.5186 L22.8,13.4654 L22.8,13.3364 L22.6,13.3364 Z M22.6,11.2873 L22.8,11.2873 L22.8,11.1583 L22.6825,11.1051 L22.6,11.2873 Z M19.92,10.07455 L19.7396,9.98826 L19.6514,10.17254 L19.8375,10.25676 L19.92,10.07455 Z M19.96,9.99091 L20.1404,10.0772 L20.1717,10.01176 L20.1538,9.94148 L19.96,9.99091 Z M19.28,8.19273 L19.0996,8.27902 L19.0996,8.27902 L19.28,8.19273 Z M19.24,8.10909 L19.0541,8.03541 L19.0219,8.1166 L19.0596,8.19538 L19.24,8.10909 Z M20.4,5.18182 L20.5859,5.2555 L20.6332,5.13626 L20.5445,5.04357 L20.4,5.18182 Z M19,3.71818 L19.1445,3.57994 L19.0483,3.47932 L18.9205,3.53466 L19,3.71818 Z M16.2,4.93091 L16.1073,5.10815 L16.1919,5.15236 L16.2795,5.11444 L16.2,4.93091 Z M16.12,4.88909 L16.0218,5.06346 L16.0273,5.06633 L16.12,4.88909 Z M14.4,4.13636 L14.4658,3.9475 L14.3444,3.90518 L14.2555,3.99812 L14.4,4.13636 Z M14.32,4.22 L14.1352,4.29651 L14.2525,4.57988 L14.4645,4.35824 L14.32,4.22 Z M13.16,1.418182 L13.3448,1.341676 L13.2937,1.218182 L13.16,1.218182 L13.16,1.418182 Z M11.2,1.418182 L11.2,1.218182 L11.0663,1.218182 L11.0152,1.341676 L11.2,1.418182 Z M10.04,4.22 L9.94735,4.39724 L10.14114,4.49855 L10.22479,4.29651 L10.04,4.22 Z M9.96,4.17818 L10.05265,4.00094 L9.98252,3.96428 L9.90629,3.98553 L9.96,4.17818 Z M8.24,4.88909 L8.14735,4.71185 L8.14735,4.71185 L8.24,4.88909 Z M8.16,4.93091 L8.08051,5.11444 L8.16808,5.15236 L8.25265,5.10815 L8.16,4.93091 Z M5.36,3.71818 L5.43949,3.53466 L5.30974,3.47846 L5.21349,3.58204 L5.36,3.71818 Z M4,5.18182 L3.85349,5.04568 L3.76756,5.13815 L3.81407,5.2555 L4,5.18182 Z M5.16,8.10909 L5.34043,8.19538 L5.37811,8.1166 L5.34593,8.03541 L5.16,8.10909 Z M5.12,8.19273 L5.29788,8.28434 L5.30043,8.27902 L5.12,8.19273 Z M4.4,9.99091 L4.51436,10.15499 L4.56996,10.11624 L4.59055,10.05166 L4.4,9.99091 Z M4.28,10.07455 L4.35762,10.25887 L4.37706,10.25069 L4.39436,10.23863 L4.28,10.07455 Z M1.4,11.2873 L1.322383,11.1029 L1.2,11.1545 L1.2,11.2873 L1.4,11.2873 Z M1.4,13.3364 L1.2,13.3364 L1.2,13.4692 L1.322383,13.5207 L1.4,13.3364 Z M4.28,14.5491 L4.42453,14.4108 L4.39585,14.3809 L4.35762,14.3648 L4.28,14.5491 Z M4.36,14.6327 L4.55379,14.5833 L4.54082,14.5324 L4.50453,14.4945 L4.36,14.6327 Z M5.08,16.4309 L5.26051,16.3446 L5.2578,16.3393 L5.08,16.4309 Z M5.12,16.5145 L5.30593,16.5882 L5.33811,16.507 L5.30043,16.4283 L5.12,16.5145 Z M3.96,19.4418 L3.77407,19.3681 L3.72606,19.4893 L3.81749,19.5821 L3.96,19.4418 Z M5.36,20.8636 L5.21749,21.004 L5.31368,21.1017 L5.43949,21.0472 L5.36,20.8636 Z M8.16,19.6509 L8.25265,19.4737 L8.16808,19.4295 L8.08051,19.4674 L8.16,19.6509 Z M8.24,19.6927 L8.33816,19.5184 L8.33265,19.5155 L8.24,19.6927 Z M9.96,20.4455 L10.12863,20.3379 L10.09133,20.2794 L10.02582,20.2566 L9.96,20.4455 Z M10.04,20.5709 L10.22579,20.4969 L10.21879,20.4793 L10.20863,20.4634 L10.04,20.5709 Z M8.72,11.58 L8.52356,11.5424 L8.5233,11.5438 L8.72,11.58 Z M11.48,8.69455 L11.5153,8.89144 L11.5185,8.89081 L11.48,8.69455 Z M14.88,9.94909 L14.7236,10.07376 L14.7248,10.07526 L14.88,9.94909 Z M15.64,13.0018 L15.8364,13.0394 L15.8367,13.038 L15.64,13.0018 Z M12.88,15.8873 L12.8447,15.6904 L12.8231,15.6943 L12.8028,15.7028 L12.88,15.8873 Z M11.6,9.07091 L11.6397,9.26694 L11.6409,9.26667 L11.6,9.07091 Z M9.16,11.6218 L8.96331,11.5854 L8.96271,11.589 L9.16,11.6218 Z M9.8,14.34 L9.63949,14.4594 L9.6425,14.4633 L9.8,14.34 Z M12.84,15.4691 L12.8755,15.666 L12.8797,15.6651 L12.84,15.4691 Z M15.28,12.9182 L15.4767,12.9546 L15.4773,12.951 L15.28,12.9182 Z M14.64,10.2 L14.8008,10.08037 L14.7924,10.07045 L14.64,10.2 Z M13.44,23.8 L10.96,23.8 L10.96,24.2 L13.44,24.2 L13.44,23.8 Z M11.1465,23.9277 L9.94647,20.8331 L9.57353,20.9778 L10.77353,24.0723 L11.1465,23.9277 Z M9.81724,20.7138 C9.27529,20.5529 8.73845,20.2714 8.26413,19.982 L8.05587,20.3235 C8.54156,20.6195 9.12471,20.9235 9.70276,21.0971 L9.81724,20.7138 Z M8.08146,19.9688 L5.24146,21.1815 L5.39854,21.5494 L8.23854,20.3367 L8.08146,19.9688 Z M5.46453,21.2272 L3.70453,19.3872 L3.41547,19.6637 L5.17547,21.5037 L5.46453,21.2272 Z M3.74629,19.5982 L4.90629,16.6291 L4.53371,16.4836 L3.37371,19.4527 L3.74629,19.5982 Z M4.8978,16.4648 C4.61515,15.9162 4.30491,15.3929 4.15379,14.7924 L3.7662,14.8912 C3.93509,15.5453 4.26485,16.1093 4.5422,16.6479 L4.8978,16.4648 Z M4.03805,14.6577 L1.0780461,13.4031 L0.9219539,13.7714 L3.88195,15.026 L4.03805,14.6577 Z M1.2,13.5873 L1.2,10.99455 L0.8,10.99455 L0.8,13.5873 L1.2,13.5873 Z M1.0780461,11.1787 L4.03805,9.92414 L3.88195,9.55586 L0.9219539,10.8104 L1.0780461,11.1787 Z M4.15293,9.79273 C4.30743,9.22433 4.57763,8.66101 4.85465,8.16472 L4.50535,7.96982 C4.22237,8.47718 3.93257,9.08476 3.76707,9.68728 L4.15293,9.79273 Z M4.86629,7.99449 L3.70629,5.0254 L3.33371,5.17096 L4.49371,8.14005 L4.86629,7.99449 Z M3.66453,5.23643 L5.42453,3.39643 L5.13547,3.11994 L3.37547,4.95994 L3.66453,5.23643 Z M5.20146,3.44211 L8.04146,4.65484 L8.19854,4.28698 L5.35854,3.07425 L5.20146,3.44211 Z M8.21811,4.64519 C8.7132,4.3643 9.21032,4.24629 9.81371,4.07811 L9.70629,3.6928 C9.10968,3.85916 8.5668,3.99206 8.02189,4.29663 L8.21811,4.64519 Z M9.94467,3.96225 L11.1447,1.0767991 L10.77533,0.9232009 L9.57533,3.80866 L9.94467,3.96225 Z M10.96,1.2 L13.44,1.2 L13.44,0.8 L10.96,0.8 L10.96,1.2 Z M13.2553,1.0767991 L14.4553,3.96225 L14.8247,3.80866 L13.6247,0.9232009 L13.2553,1.0767991 Z M14.5828,4.07709 C15.1364,4.24233 15.6785,4.44448 16.1473,4.68997 L16.3327,4.33548 C15.8415,4.07916 15.2636,3.86312 14.6972,3.69382 L14.5828,4.07709 Z M16.3208,4.69567 L19.1608,3.44113 L18.9992,3.07524 L16.1592,4.32978 L16.3208,4.69567 Z M18.9355,3.39643 L20.6955,5.23643 L20.9845,4.95994 L19.2245,3.11994 L18.9355,3.39643 Z M20.6537,5.0254 L19.4937,7.99449 L19.8663,8.14005 L21.0263,5.17096 L20.6537,5.0254 Z M19.5022,8.15885 C19.7719,8.67882 19.8858,9.20248 20.0471,9.79273 L20.4329,9.68728 C20.2742,9.10661 20.1481,8.543 19.8578,7.9757 L19.5022,8.15885 Z M20.1572,9.92207 L22.9172,11.1766 L23.0828,10.81247 L20.3228,9.55793 L20.1572,9.92207 Z M22.8,10.99455 L22.8,13.5873 L23.2,13.5873 L23.2,10.99455 L22.8,10.99455 Z M22.9172,13.4052 L20.1572,14.6597 L20.3228,15.0239 L23.0828,13.7693 L22.9172,13.4052 Z M20.0471,14.7891 C19.8888,15.3686 19.6948,15.9371 19.4596,16.4283 L19.8204,16.6008 C20.0652,16.0883 20.2712,15.486 20.4329,14.8945 L20.0471,14.7891 Z M19.4546,16.5895 L20.6546,19.5586 L21.0254,19.4087 L19.8254,16.4396 L19.4546,16.5895 Z M20.6955,19.3454 L18.9355,21.1854 L19.2245,21.4619 L20.9845,19.6219 L20.6955,19.3454 Z M19.1585,21.1397 L16.3185,19.927 L16.1615,20.2948 L19.0015,21.5076 L19.1585,21.1397 Z M16.1419,19.9366 C15.6168,20.2323 15.1164,20.5565 14.5828,20.7138 L14.6972,21.0971 C15.2836,20.9199 15.8232,20.5749 16.3381,20.2852 L16.1419,19.9366 Z M14.4535,20.8331 L13.2535,23.9277 L13.6265,24.0723 L14.8265,20.9778 L14.4535,20.8331 Z M11.24,23.7818 L13.2,23.7818 L13.2,23.3818 L11.24,23.3818 L11.24,23.7818 Z M13.3866,23.6537 L14.5466,20.6428 L14.1734,20.499 L13.0134,23.5099 L13.3866,23.6537 Z M14.5045,20.7092 L14.5845,20.6255 L14.2955,20.349 L14.2155,20.4327 L14.5045,20.7092 Z M14.4937,20.6799 C15.1136,20.506 15.6927,20.2045 16.2527,19.9118 L16.0673,19.5573 C15.5073,19.85 14.9664,20.134 14.3863,20.2946 L14.4937,20.6799 Z M16.2527,19.9118 L16.3327,19.87 L16.1473,19.5155 L16.0673,19.5573 L16.2527,19.9118 Z M16.1605,19.8763 L18.9605,21.089 L19.1195,20.7219 L16.3195,19.5092 L16.1605,19.8763 Z M19.1865,21.0416 L20.5465,19.578 L20.2535,19.3057 L18.8935,20.7693 L19.1865,21.0416 Z M20.5859,19.3681 L19.4259,16.4409 L19.0541,16.5882 L20.2141,19.5155 L20.5859,19.3681 Z M19.4204,16.6008 L19.4604,16.5172 L19.0996,16.3446 L19.0596,16.4283 L19.4204,16.6008 Z M19.4578,16.5225 C19.7426,15.9689 19.9887,15.3261 20.1905,14.6935 L19.8095,14.572 C19.6113,15.1939 19.3774,15.8056 19.1022,16.3393 L19.4578,16.5225 Z M20.1445,14.4945 L20.0645,14.4108 L19.7755,14.6873 L19.8555,14.771 L20.1445,14.4945 Z M20.0025,14.7313 L22.6825,13.5186 L22.5175,13.1542 L19.8375,14.3669 L20.0025,14.7313 Z M22.8,13.3364 L22.8,11.2873 L22.4,11.2873 L22.4,13.3364 L22.8,13.3364 Z M22.6825,11.1051 L20.0025,9.89233 L19.8375,10.25676 L22.5175,11.4695 L22.6825,11.1051 Z M20.1004,10.16084 L20.1404,10.0772 L19.7796,9.90462 L19.7396,9.98826 L20.1004,10.16084 Z M20.1538,9.94148 C19.9899,9.30084 19.7428,8.69707 19.4604,8.10644 L19.0996,8.27902 C19.3772,8.85929 19.6101,9.42644 19.7662,10.04034 L20.1538,9.94148 Z M19.4604,8.10644 L19.4204,8.0228 L19.0596,8.19538 L19.0996,8.27902 L19.4604,8.10644 Z M19.4259,8.18277 L20.5859,5.2555 L20.2141,5.10814 L19.0541,8.03541 L19.4259,8.18277 Z M20.5445,5.04357 L19.1445,3.57994 L18.8555,3.85643 L20.2555,5.32006 L20.5445,5.04357 Z M18.9205,3.53466 L16.1205,4.74738 L16.2795,5.11444 L19.0795,3.90171 L18.9205,3.53466 Z M16.2927,4.75367 L16.2127,4.71185 L16.0273,5.06633 L16.1073,5.10815 L16.2927,4.75367 Z M16.2181,4.71481 C15.6878,4.41666 15.0715,4.15868 14.4658,3.9475 L14.3342,4.32522 C14.9285,4.53223 15.5122,4.77607 16.0219,5.06337 L16.2181,4.71481 Z M14.2555,3.99812 L14.1755,4.08176 L14.4645,4.35824 L14.5445,4.27461 L14.2555,3.99812 Z M14.5048,4.14349 L13.3448,1.341676 L12.9752,1.494687 L14.1352,4.29651 L14.5048,4.14349 Z M13.16,1.218182 L11.2,1.218182 L11.2,1.618182 L13.16,1.618182 L13.16,1.218182 Z M11.0152,1.341676 L9.85521,4.14349 L10.22479,4.29651 L11.3848,1.494687 L11.0152,1.341676 Z M10.13265,4.04276 L10.05265,4.00094 L9.86735,4.35543 L9.94735,4.39724 L10.13265,4.04276 Z M9.90629,3.98553 C9.29207,4.15735 8.71275,4.4164 8.14735,4.71185 L8.33265,5.06634 C8.88725,4.77633 9.42793,4.53356 10.01371,4.37084 L9.90629,3.98553 Z M8.14735,4.71185 L8.06735,4.75367 L8.25265,5.10815 L8.33265,5.06633 L8.14735,4.71185 Z M8.23949,4.74738 L5.43949,3.53466 L5.28051,3.90171 L8.08051,5.11444 L8.23949,4.74738 Z M5.21349,3.58204 L3.85349,5.04568 L4.14651,5.31796 L5.50651,3.85432 L5.21349,3.58204 Z M3.81407,5.2555 L4.97407,8.18277 L5.34593,8.03541 L4.18593,5.10814 L3.81407,5.2555 Z M4.97957,8.0228 L4.93957,8.10644 L5.30043,8.27902 L5.34043,8.19538 L4.97957,8.0228 Z M4.9422,8.10115 C4.65742,8.65472 4.41125,9.2975 4.20945,9.93015 L4.59055,10.05166 C4.78875,9.42978 5.02257,8.81801 5.2978,8.2843 L4.9422,8.10115 Z M4.28564,9.82683 L4.16564,9.91047 L4.39436,10.23863 L4.51436,10.15499 L4.28564,9.82683 Z M4.20238,9.89022 L1.322383,11.1029 L1.477617,11.4716 L4.35762,10.25887 L4.20238,9.89022 Z M1.2,11.2873 L1.2,13.3364 L1.6,13.3364 L1.6,11.2873 L1.2,11.2873 Z M1.322383,13.5207 L4.20238,14.7334 L4.35762,14.3648 L1.477617,13.152 L1.322383,13.5207 Z M4.13547,14.6873 L4.21547,14.771 L4.50453,14.4945 L4.42453,14.4108 L4.13547,14.6873 Z M4.1662,14.6822 C4.3311,15.3257 4.61971,15.9739 4.9022,16.5225 L5.2578,16.3393 C4.98029,15.8007 4.7089,15.1943 4.55379,14.5833 L4.1662,14.6822 Z M4.89957,16.5172 L4.93957,16.6008 L5.30043,16.4283 L5.26043,16.3446 L4.89957,16.5172 Z M4.93407,16.4409 L3.77407,19.3681 L4.14593,19.5155 L5.30593,16.5882 L4.93407,16.4409 Z M3.81749,19.5821 L5.21749,21.004 L5.50251,20.7233 L4.10251,19.3015 L3.81749,19.5821 Z M5.43949,21.0472 L8.23949,19.8344 L8.08051,19.4674 L5.28051,20.6801 L5.43949,21.0472 Z M8.06735,19.8282 L8.14735,19.87 L8.33265,19.5155 L8.25265,19.4737 L8.06735,19.8282 Z M8.14189,19.867 C8.67221,20.1652 9.28848,20.4231 9.89419,20.6343 L10.02582,20.2566 C9.43152,20.0496 8.84778,19.8057 8.33811,19.5184 L8.14189,19.867 Z M9.79137,20.553 L9.87137,20.6784 L10.20863,20.4634 L10.12863,20.3379 L9.79137,20.553 Z M9.85421,20.645 L11.0542,23.6559 L11.4258,23.5078 L10.22579,20.4969 L9.85421,20.645 Z M12.2,15.7709 C11.2246,15.7709 10.28009,15.2998 9.63518,14.5066 L9.32482,14.7589 C10.03991,15.6384 11.0954,16.1709 12.2,16.1709 L12.2,15.7709 Z M9.63518,14.5066 C8.99334,13.7171 8.72694,12.6478 8.9167,11.6162 L8.5233,11.5438 C8.31306,12.6868 8.60667,13.8756 9.32482,14.7589 L9.63518,14.5066 Z M8.91644,11.6176 C9.18295,10.22447 10.20713,9.12586 11.5153,8.89141 L11.4447,8.49768 C9.95288,8.76505 8.81705,10.00826 8.52356,11.5424 L8.91644,11.6176 Z M11.5185,8.89081 C12.724,8.6545 13.9693,9.12746 14.7236,10.07375 L15.0364,9.82443 C14.1907,8.76345 12.796,8.23277 11.4415,8.49828 L11.5185,8.89081 Z M14.7248,10.07526 C15.3667,10.8647 15.6331,11.934 15.4433,12.9656 L15.8367,13.038 C16.0469,11.8951 15.7533,10.70621 15.0352,9.82292 L14.7248,10.07526 Z M15.4436,12.9642 C15.1771,14.3574 14.1529,15.456 12.8447,15.6904 L12.9153,16.0841 C14.4071,15.8168 15.5429,14.5736 15.8364,13.0394 L15.4436,12.9642 Z M12.8028,15.7028 C12.647,15.7679 12.4505,15.7709 12.2,15.7709 L12.2,16.1709 C12.4295,16.1709 12.713,16.1739 12.9572,16.0718 L12.8028,15.7028 Z M12.2,8.82909 C12,8.82909 11.7794,8.83015 11.5591,8.87514 L11.6409,9.26667 C11.8206,9.22803 12,9.22909 12.2,9.22909 L12.2,8.82909 Z M11.5603,8.87488 C10.23599,9.14286 9.21738,10.21324 8.96334,11.5854 L9.35666,11.6582 C9.58262,10.43767 10.48401,9.50078 11.6397,9.26694 L11.5603,8.87488 Z M8.96271,11.589 C8.79404,12.6029 9.04619,13.6618 9.63954,14.4594 L9.96046,14.2206 C9.43381,13.5127 9.20596,12.5643 9.35729,11.6546 L8.96271,11.589 Z M9.6425,14.4633 C10.41035,15.4444 11.646,15.8875 12.8755,15.6659 L12.8045,15.2723 C11.714,15.4688 10.62965,15.0756 9.9575,14.2167 L9.6425,14.4633 Z M12.8797,15.6651 C14.204,15.3971 15.2226,14.3268 15.4767,12.9546 L15.0833,12.8818 C14.8574,14.1023 13.956,15.0392 12.8003,15.2731 L12.8797,15.6651 Z M15.4773,12.951 C15.646,11.9371 15.3938,10.87817 14.8005,10.08062 L14.4795,10.31938 C15.0062,11.0273 15.234,11.9757 15.0827,12.8854 L15.4773,12.951 Z M14.7924,10.07045 C14.1169,9.27606 13.1825,8.82909 12.2,8.82909 L12.2,9.22909 C13.0575,9.22909 13.8831,9.61849 14.4876,10.32955 L14.7924,10.07045 Z" id="path5_stroke_2x" stroke="none" fill="#949494" fill-rule="nonzero"></path>
</svg>
