<svg width="68" height="68" viewBox="0 0 68 68" version="1.1" xmlns="http://www.w3.org/2000/svg" xmlns:xlink="http://www.w3.org/1999/xlink" xmlns:figma="http://www.figma.com/figma/ns">
<title>noun_835769_cc</title>
<desc>Created using Figma</desc>
<g id="Canvas" transform="translate(-1386 245)" figma:type="canvas">
<g id="noun_835769_cc" style="mix-blend-mode:normal;" figma:type="frame">
<g id="Group" style="mix-blend-mode:normal;" figma:type="frame">
<g id="Vector" style="mix-blend-mode:normal;" figma:type="vector">
<use xlink:href="#path0_fill" transform="translate(1402.94 -228.043)" fill="#FFFFFF" style="mix-blend-mode:normal;"/>
</g>
<g id="Vector" style="mix-blend-mode:normal;" figma:type="vector">
<use xlink:href="#path1_fill" transform="translate(1386 -211.306)" fill="#FFFFFF" style="mix-blend-mode:normal;"/>
</g>
<g id="Vector" style="mix-blend-mode:normal;" figma:type="vector">
<use xlink:href="#path2_fill" transform="translate(1444.25 -211.646)" fill="#FFFFFF" style="mix-blend-mode:normal;"/>
</g>
<g id="Vector" style="mix-blend-mode:normal;" figma:type="vector">
<use xlink:href="#path3_fill" transform="translate(1436.7 -235.439)" fill="#FFFFFF" style="mix-blend-mode:normal;"/>
</g>
<g id="Vector" style="mix-blend-mode:normal;" figma:type="vector">
<use xlink:href="#path4_fill" transform="translate(1395.69 -194.144)" fill="#FFFFFF" style="mix-blend-mode:normal;"/>
</g>
<g id="Vector" style="mix-blend-mode:normal;" figma:type="vector">
<use xlink:href="#path5_fill" transform="translate(1395.62 -234.759)" fill="#FFFFFF" style="mix-blend-mode:normal;"/>
</g>
<g id="Vector" style="mix-blend-mode:normal;" figma:type="vector">
<use xlink:href="#path6_fill" transform="translate(1436.81 -193.598)" fill="#FFFFFF" style="mix-blend-mode:normal;"/>
</g>
<g id="Vector" style="mix-blend-mode:normal;" figma:type="vector">
<use xlink:href="#path7_fill" transform="translate(1419.66 -186.695)" fill="#FFFFFF" style="mix-blend-mode:normal;"/>
</g>
<g id="Vector" style="mix-blend-mode:normal;" figma:type="vector">
<use xlink:href="#path8_fill" transform="translate(1419.66 -245)" fill="#FFFFFF" style="mix-blend-mode:normal;"/>
</g>
</g>
</g>
</g>
<defs>
<path id="path0_fill" d="M 17.0615 -2.59529e-07C 7.68108 -2.59529e-07 -2.59301e-07 7.61981 -2.59301e-07 17.0765C -2.59301e-07 26.4652 7.68108 34.085 17.0615 34.085C 26.4419 34.085 34.123 26.4652 34.123 17.0765C 34.123 7.68785 26.4419 -2.59529e-07 17.0615 -2.59529e-07ZM 17.0615 33.4047C 8.02095 33.4047 0.747716 26.057 0.747716 17.0765C 0.747716 8.09605 8.08893 0.748374 17.0615 0.748374C 26.0341 0.748374 33.3753 8.09605 33.3753 17.0765C 33.3753 26.057 26.1021 33.4047 17.0615 33.4047Z"/>
<path id="path1_fill" d="M 9.32945 0L 0.356864 0C -0.118955 0 -0.118955 0.68034 0.356864 0.68034L 9.32945 0.68034C 9.80527 0.68034 9.87325 0 9.32945 0Z"/>
<path id="path2_fill" d="M 9.39743 0L 0.356862 0C -0.118957 0 -0.118957 0.68034 0.356862 0.68034L 9.32945 0.68034C 9.87325 0.68034 9.87325 0 9.39743 0Z"/>
<path id="path3_fill" d="M 0.565043 6.98846L 6.95462 0.593265C 7.29449 0.253095 6.81866 -0.223143 6.47879 0.117027L 0.157199 6.44419C -0.250646 6.78436 0.225172 7.32863 0.565043 6.98846Z"/>
<path id="path4_fill" d="M 6.43852 0.118022L 0.116924 6.44518C -0.222947 6.78535 0.252872 7.2616 0.592743 6.92142L 6.98231 0.526225C 7.25421 0.254089 6.77839 -0.222148 6.43852 0.118022Z"/>
<path id="path5_fill" d="M 6.43852 6.92043C 6.77839 7.2606 7.25421 6.78436 6.91434 6.44419L 0.592743 0.117027C 0.252872 -0.223143 -0.222947 0.253095 0.116924 0.593265L 6.43852 6.92043Z"/>
<path id="path6_fill" d="M 0.592742 0.117025C 0.252871 -0.223145 -0.222946 0.253096 0.116925 0.593266L 6.5065 6.98847C 6.84637 7.32864 7.32218 6.8524 6.98231 6.51223L 0.592742 0.117025Z"/>
<path id="path7_fill" d="M 0 0.357177L 0 9.33767C 0 9.81391 0.679742 9.81391 0.679742 9.33767L 0.679742 0.357177C 0.679742 -0.119062 0 -0.119062 0 0.357177Z"/>
<path id="path8_fill" d="M 0.679742 9.40571L 0.679742 0.357179C 0.679742 -0.11906 0 -0.11906 0 0.357179L 0 9.33767C 0 9.81391 0.679742 9.88194 0.679742 9.40571Z"/>
</defs>
</svg>
